<?xml version="1.0" standalone="no"?>
<!DOCTYPE svg PUBLIC "-//W3C//DTD SVG 1.1//EN" "http://www.w3.org/Graphics/SVG/1.1/DTD/svg11.dtd" >
<svg>
<metadata>
Created by FontForge 20120731 at Thu Oct 15 19:34:00 2015
 By ,,,
Copyright (c) 1987, 1991, 1992, 1993, 2002 Adobe Systems Incorporated.  All Rights Reserved.
</metadata>
<defs>
<font id="FuturaStd-CondensedBold" horiz-adv-x="490" >
  <font-face 
    font-family="Futura Std Condensed"
    font-weight="700"
    font-stretch="condensed"
    units-per-em="1000"
    panose-1="2 11 7 6 2 2 4 3 2 4"
    ascent="825"
    descent="-175"
    x-height="505"
    cap-height="754"
    bbox="-140 -261 1195 990"
    underline-thickness="50"
    underline-position="-50"
    unicode-range="U+0020-FB02"
  />
<missing-glyph horiz-adv-x="500" 
d="M0 0v700h500v-700h-500zM250 395l170 255h-340zM280 350l170 -255v510zM80 50h340l-170 255zM50 605v-510l170 255z" />
    <glyph glyph-name="fi" unicode="fi" horiz-adv-x="535" 
d="M19 505h52v142q0 40 5 67.5t20 52.5t44.5 37.5t75.5 12.5q27 0 61 -12v-136q-14 8 -25 8q-7 0 -13 -1.5t-10 -5.5t-7 -7.5t-5 -10t-3 -10.5t-1.5 -12t-0.5 -12v-12.5v-10.5v-90h65v-116h-65v-389h-141v389h-52v116zM341 505h141v-505h-141v505zM411 565q-37 0 -63 26.5
t-26 64.5t26.5 63.5t65.5 25.5q36 0 61.5 -27t25.5 -64q0 -36 -26.5 -62.5t-63.5 -26.5z" />
    <glyph glyph-name="fl" unicode="fl" horiz-adv-x="535" 
d="M341 807h141v-807h-141v807zM19 505h52v142q0 40 5 67.5t20 52.5t44.5 37.5t75.5 12.5q27 0 61 -12v-136q-14 8 -25 8q-7 0 -13 -1.5t-10 -5.5t-7 -7.5t-5 -10t-3 -10.5t-1.5 -12t-0.5 -12v-12.5v-10.5v-90h65v-116h-65v-389h-141v389h-52v116z" />
    <glyph glyph-name=".notdef" horiz-adv-x="500" 
d="M0 0v700h500v-700h-500zM250 395l170 255h-340zM280 350l170 -255v510zM80 50h340l-170 255zM50 605v-510l170 255z" />
    <glyph glyph-name=".null" horiz-adv-x="0" 
 />
    <glyph glyph-name="nonmarkingreturn" horiz-adv-x="333" 
 />
    <glyph glyph-name="space" unicode=" " horiz-adv-x="245" 
 />
    <glyph glyph-name="exclam" unicode="!" horiz-adv-x="246" 
d="M197 754v-528h-147v528h147zM123 178q39 0 67 -28t28 -67t-28 -67t-67 -28t-67 28t-28 67t28 67t67 28z" />
    <glyph glyph-name="quotedbl" unicode="&#x22;" horiz-adv-x="360" 
d="M326 463h-109l-15 291h139zM143 463h-109l-15 291h139z" />
    <glyph glyph-name="numbersign" unicode="#" 
d="M440 338v-100h-86l-29 -238h-83l28 238h-74l-29 -238h-84l28 238h-85v100h98l11 94h-84v100h95l27 222h83l-26 -222h75l26 222h84l-27 -222h76v-100h-88l-11 -94h75zM293 432h-74l-11 -94h73z" />
    <glyph glyph-name="dollar" unicode="$" 
d="M209 760v71h73v-71q105 -16 161 -88l-82 -90q-51 58 -115 58q-39 0 -62 -20t-23 -59q0 -35 20.5 -53.5t58.5 -34.5q45 -18 70.5 -30t61 -34.5t54 -45t32.5 -58.5t14 -79q0 -89 -51.5 -155.5t-138.5 -82.5v-86h-73v86q-119 17 -188 88l70 111q27 -26 44.5 -40t45.5 -26.5
t58 -12.5q40 0 65.5 28t25.5 70q0 21 -7 38t-22.5 29.5t-28 19.5t-34.5 18q-34 15 -47.5 21.5t-43 22.5t-42.5 26.5t-33.5 29.5t-29.5 37.5t-16 44t-7 54.5q0 89 50.5 143.5t139.5 69.5z" />
    <glyph glyph-name="percent" unicode="%" horiz-adv-x="858" 
d="M195 761q45 0 77 -18.5t48.5 -51.5t24 -69t7.5 -78t-7.5 -78t-24 -69t-48.5 -51.5t-77 -18.5t-77 18.5t-48.5 51.5t-24 69t-7.5 78t7.5 78t24 69t48.5 51.5t77 18.5zM195 647q-37 0 -37 -103t37 -103t37 103t-37 103zM662 427q45 0 77 -18.5t48.5 -51.5t24 -69t7.5 -78
t-7.5 -78t-24 -69t-48.5 -51.5t-77 -18.5t-77 18.5t-48.5 51.5t-24 69t-7.5 78t7.5 78t24 69t48.5 51.5t77 18.5zM662 313q-37 0 -37 -103t37 -103t37 103t-37 103zM554 754h107l-357 -754h-107z" />
    <glyph glyph-name="ampersand" unicode="&#x26;" horiz-adv-x="590" 
d="M243 497q52 28 52 80q0 17 -10.5 29t-27.5 12q-20 0 -33 -12.5t-13 -32.5q0 -10 4 -22t6.5 -17t11.5 -20t10 -17zM306 146l-99 151q-16 -12 -26 -33t-10 -41q0 -41 23.5 -69.5t59.5 -28.5q28 0 52 21zM402 0l-29 44q-62 -54 -138 -54q-90 0 -149.5 66t-59.5 157
q0 116 109 199q-53 92 -53 156q0 74 50.5 119.5t125.5 45.5q71 0 122 -40.5t51 -109.5q0 -101 -121 -204l100 -155q8 8 24.5 25t28.5 30.5t22 26.5l79 -107q-31 -38 -77 -74l-6 -5l79 -120h-158z" />
    <glyph glyph-name="quotesingle" unicode="'" horiz-adv-x="250" 
d="M180 463h-109l-15 291h139z" />
    <glyph glyph-name="parenleft" unicode="(" horiz-adv-x="300" 
d="M153 766l129 -28q-100 -208 -100 -430q0 -205 100 -415l-129 -29q-111 214 -111 447q0 249 111 455z" />
    <glyph glyph-name="parenright" unicode=")" horiz-adv-x="300" 
d="M147 -136l-129 28q100 208 100 430q0 205 -100 415l129 29q111 -214 111 -447q0 -249 -111 -455z" />
    <glyph glyph-name="asterisk" unicode="*" horiz-adv-x="376" 
d="M158 754h64v-119l99 63l32 -56l-105 -58l105 -59l-32 -57l-99 65v-123h-64v123l-103 -65l-32 57l104 59l-104 58l32 56l103 -63v119z" />
    <glyph glyph-name="plus" unicode="+" 
d="M190 311v188h110v-188h170v-110h-170v-194h-110v194h-169v110h169z" />
    <glyph glyph-name="comma" unicode="," horiz-adv-x="245" 
d="M67 162h151l-151 -306h-100z" />
    <glyph glyph-name="hyphen" unicode="-" horiz-adv-x="318" 
d="M34 397h250v-133h-250v133z" />
    <glyph glyph-name="period" unicode="." horiz-adv-x="245" 
d="M122 178q40 0 67.5 -28t27.5 -67t-27.5 -67t-67.5 -28t-67.5 28t-27.5 67t27.5 67t67.5 28z" />
    <glyph glyph-name="slash" unicode="/" horiz-adv-x="547" 
d="M424 807h114l-393 -973h-114z" />
    <glyph glyph-name="zero" unicode="0" 
d="M245 766q52 0 91.5 -28.5t61.5 -70t36 -97t18.5 -101.5t4.5 -92t-4.5 -92t-18.5 -101.5t-36 -97t-61.5 -70t-91.5 -28.5t-91.5 28.5t-61.5 70t-36 97t-18.5 101.5t-4.5 92t4.5 92t18.5 101.5t36 97t61.5 70t91.5 28.5zM245 630q-69 0 -67 -241v-12q0 -141 16 -195
q17 -58 51 -58q69 0 67 241v12q0 141 -16 195q-17 58 -51 58z" />
    <glyph glyph-name="one" unicode="1" 
d="M110 754h217v-754h-145v624h-72v130z" />
    <glyph glyph-name="two" unicode="2" 
d="M190 492h-138l-2 41q0 115 43 174.5t154 59.5q96 0 149.5 -49t53.5 -144q0 -86 -62 -205l-126 -239h175v-130h-396l170 312q32 58 45.5 84.5t32.5 80.5t19 92q0 37 -14 65t-46 28q-60 0 -60 -122z" />
    <glyph glyph-name="three" unicode="3" 
d="M175 198l-1 -21q0 -22 14.5 -40.5t41.5 -18.5q22 0 36 9.5t19.5 27.5t7.5 33.5t2 36.5q0 62 -24.5 84.5t-88.5 20.5v130q64 0 89 19.5t25 79.5q0 77 -51 77q-50 0 -50 -78v-15h-129q-5 100 36.5 161.5t139.5 61.5q90 0 140.5 -53t50.5 -144q0 -141 -93 -178v-2
q59 -15 87.5 -64t28.5 -115q0 -103 -59.5 -162.5t-163.5 -59.5q-95 0 -149 57.5t-49 152.5h140z" />
    <glyph glyph-name="four" unicode="4" 
d="M228 754h164v-458h61v-114h-61v-182h-145v182h-219v112zM247 296v286h-2l-112 -286h114z" />
    <glyph glyph-name="five" unicode="5" 
d="M74 383l59 371h288v-130h-184l-20 -122q112 -6 168.5 -70.5t56.5 -178.5q0 -124 -63 -194.5t-185 -70.5q-76 0 -145 34l25 131q43 -35 92 -35q56 0 86.5 40t30.5 97q0 68 -41 101t-111 33q-21 0 -57 -6z" />
    <glyph glyph-name="six" unicode="6" 
d="M206 754h144l-144 -294l2 -2q46 41 94 41q40 0 71 -23.5t48 -60t25 -75t8 -75.5q0 -54 -11 -101t-34.5 -87.5t-66 -64.5t-99.5 -24q-54 0 -95 22.5t-64.5 61t-35 84t-11.5 97.5q0 93 27 176.5t80 196.5zM249 367q-26 0 -42 -26t-20.5 -52.5t-4.5 -51.5q0 -23 5 -48.5
t20 -49.5t38 -24q20 0 34 15t20 38.5t8 42.5t2 38q0 17 -2.5 34.5t-8.5 38t-18.5 33t-30.5 12.5z" />
    <glyph glyph-name="seven" unicode="7" 
d="M73 754h407l-284 -754h-155l235 624h-203v130z" />
    <glyph glyph-name="eight" unicode="8" 
d="M160 406v2q-49 17 -76 60.5t-27 98.5q0 85 52 142t137 57q84 0 136 -57t52 -142q0 -55 -26.5 -98.5t-76.5 -61.5v-1q131 -42 131 -200q0 -94 -61 -156t-155 -62t-155.5 62.5t-61.5 155.5q0 157 131 200zM202 570q0 -86 41 -86q46 0 46 85q0 80 -46 80q-41 0 -41 -79z
M244 334q-24 0 -38.5 -20t-19 -42.5t-4.5 -46.5t4.5 -46t19.5 -41.5t39 -19.5q34 0 49 34.5t15 72.5q0 37 -16 73t-49 36z" />
    <glyph glyph-name="nine" unicode="9" 
d="M285 0h-144l144 295l-2 2q-47 -42 -94 -42q-53 0 -89.5 41.5t-49.5 92t-13 101.5q0 42 6.5 80.5t22.5 75t39.5 62.5t60 42t82.5 16q105 0 155.5 -76.5t50.5 -188.5q0 -92 -27 -176.5t-80 -195.5zM246 637q-20 0 -34 -14.5t-20 -38t-8 -42.5t-2 -37q0 -17 2.5 -34.5
t8.5 -37.5t18.5 -33t30.5 -13q20 0 34.5 14.5t21 37.5t9 42t2.5 37q0 16 -3 34.5t-9.5 38.5t-19.5 33t-31 13z" />
    <glyph glyph-name="colon" unicode=":" horiz-adv-x="245" 
d="M122 178q40 0 67.5 -28t27.5 -67t-27.5 -67t-67.5 -28t-67.5 28t-27.5 67t27.5 67t67.5 28zM122 515q40 0 67.5 -28t27.5 -67t-27.5 -67t-67.5 -28t-67.5 28t-27.5 67t27.5 67t67.5 28z" />
    <glyph glyph-name="semicolon" unicode=";" horiz-adv-x="245" 
d="M67 162h150l-150 -306h-100zM123 515q40 0 67.5 -28t27.5 -67t-27.5 -67t-67.5 -28t-67.5 28t-27.5 67t27.5 67t67.5 28z" />
    <glyph glyph-name="less" unicode="&#x3c;" 
d="M140 256l330 -162v-111l-450 225v99l450 227v-111z" />
    <glyph glyph-name="equal" unicode="=" 
d="M470 408v-110h-449v110h449zM470 213v-110h-449v110h449z" />
    <glyph glyph-name="greater" unicode="&#x3e;" 
d="M21 94l329 162l-329 167v111l449 -227v-99l-449 -225v111z" />
    <glyph glyph-name="question" unicode="?" horiz-adv-x="454" 
d="M167 564v-18h-141q-4 99 45.5 159.5t146.5 60.5t153.5 -63t56.5 -162q0 -70 -30.5 -130.5t-91.5 -76.5v-98h-149v186q13 -3 25 -3q46 0 66.5 35t20.5 84q0 21 -3 40.5t-16 38.5t-34 19q-25 0 -37 -22t-12 -50zM138 83q0 39 28 67t66 28q40 0 68 -28t28 -67t-28 -67
t-68 -28q-38 0 -66 28t-28 67z" />
    <glyph glyph-name="at" unicode="@" horiz-adv-x="833" 
d="M504 373q4 49 -17 83t-65 30q-46 -4 -78 -40.5t-35 -85.5q-3 -47 17.5 -75t53.5 -33q52 -8 86 32t38 89zM538 518l11 53h98l-53 -306q-5 -23 13 -22q27 3 62 47q46 60 48 136q4 122 -76 194.5t-209 72.5q-138 0 -227 -88.5t-89 -223.5q0 -149 91.5 -234.5t241.5 -85.5
q104 0 205 92h96q-120 -165 -309 -165q-184 0 -293.5 108.5t-109.5 284.5q0 47 11.5 96t41 102t73 93.5t114 67t157.5 26.5q155 0 257.5 -87.5t102.5 -224.5q0 -67 -22.5 -122t-54.5 -86.5t-70 -53t-66.5 -29t-46.5 -7.5q-20 0 -34 17.5t-8 44.5l-2 2q-65 -60 -123 -60
q-77 0 -123 52t-46 130q0 95 59.5 165.5t152.5 70.5q85 0 127 -60z" />
    <glyph glyph-name="A" unicode="A" horiz-adv-x="528" 
d="M183 754h157l181 -754h-159l-28 127h-151l-27 -127h-148zM312 245l-38 201l-17 114h-2l-16 -114l-32 -201h105z" />
    <glyph glyph-name="B" unicode="B" horiz-adv-x="479" 
d="M297 229q0 45 -26 73t-69 27v-204q44 -2 69.5 27t25.5 77zM198 0h-145v754h146q54 0 88.5 -7.5t67.5 -33.5q37 -29 57 -75t20 -95q0 -101 -81 -156q44 -21 68.5 -71.5t24.5 -103.5q0 -106 -68.5 -159t-177.5 -53zM291 540q0 42 -23.5 66.5t-65.5 22.5v-184q42 0 65.5 26
t23.5 69z" />
    <glyph glyph-name="C" unicode="C" horiz-adv-x="452" 
d="M429 749v-137q-30 8 -56 8q-92 0 -140 -69.5t-48 -165.5q0 -60 18.5 -115t63 -95t105.5 -40q22 0 57 11v-141q-32 -13 -69 -13q-103 0 -181 57.5t-115.5 145t-37.5 189.5q0 95 38.5 180.5t115 142t173.5 56.5q37 0 76 -14z" />
    <glyph glyph-name="D" unicode="D" horiz-adv-x="530" 
d="M186 0h-133v754h113h6q9 -1 25 1t37.5 -2t46.5 -8t51 -18t50.5 -31t46.5 -47.5t39 -68t26.5 -91.5t9.5 -118q0 -371 -318 -371zM202 134q42 -2 74 21t48 61.5t23.5 77.5t7.5 78q0 41 -7 80t-23 79t-47.5 64.5t-75.5 24.5v-486z" />
    <glyph glyph-name="E" unicode="E" horiz-adv-x="392" 
d="M53 754h300v-140h-151v-164h133v-140h-133v-170h153v-140h-302v754z" />
    <glyph glyph-name="F" unicode="F" horiz-adv-x="394" 
d="M53 754h301v-140h-152v-161h137v-140h-137v-313h-149v754z" />
    <glyph glyph-name="G" unicode="G" horiz-adv-x="563" 
d="M293 420h244v-59q0 -68 -10 -127t-34.5 -118t-75 -93.5t-122.5 -34.5t-127 36t-84.5 95t-43.5 123t-14 131q0 56 7.5 108t26.5 105t48 92t77.5 63.5t109.5 24.5q84 0 140.5 -48t81.5 -131l-145 -56q-4 20 -7.5 32.5t-11.5 29.5t-22.5 26t-34.5 9q-35 2 -59.5 -25
t-34.5 -73t-13.5 -81.5t-3.5 -71.5q0 -251 115 -251q27 0 45.5 16t27 42t12 49t3.5 47h-95v140z" />
    <glyph glyph-name="H" unicode="H" horiz-adv-x="555" 
d="M53 754h149v-295h151v295h149v-754h-149v319h-151v-319h-149v754z" />
    <glyph glyph-name="I" unicode="I" horiz-adv-x="255" 
d="M53 754h149v-754h-149v754z" />
    <glyph glyph-name="J" unicode="J" horiz-adv-x="352" 
d="M304 754v-510v-35t-3 -42t-9 -51t-19 -45.5t-31.5 -43.5t-49 -27t-68.5 -12q-69 0 -112 23v149q32 -42 78 -42q23 0 37.5 10t20 31t6.5 35t1 41v9v510h149z" />
    <glyph glyph-name="K" unicode="K" horiz-adv-x="513" 
d="M53 754h149v-337h2l124 337h152l-139 -348l157 -406h-157l-137 384h-2v-384h-149v754z" />
    <glyph glyph-name="L" unicode="L" horiz-adv-x="373" 
d="M53 754h149v-614h156v-140h-305v754z" />
    <glyph glyph-name="M" unicode="M" horiz-adv-x="722" 
d="M89 754h196l73 -445h2l60 445h200l79 -754h-153l-36 543h-2l-24 -186l-64 -357h-115l-73 361l-25 168v14h-2l-22 -543h-160z" />
    <glyph glyph-name="N" unicode="N" horiz-adv-x="573" 
d="M53 754h143l186 -455l2 2q-12 48 -12 114v339h149v-754h-141l-184 455l-2 -2l7 -76l1 -31v-346h-149v754z" />
    <glyph glyph-name="O" unicode="O" horiz-adv-x="582" 
d="M291 766q52 0 98 -21.5t84 -66t60.5 -122t22.5 -179.5t-22.5 -179.5t-60.5 -122t-84 -66t-98 -21.5t-98 21.5t-84 66t-60.5 122t-22.5 179.5t22.5 179.5t60.5 122t84 66t98 21.5zM185 377q0 -33 3 -66.5t12.5 -80t32.5 -75.5t58 -29t58 29t32.5 75.5t12.5 80t3 66.5
q0 36 -3 69.5t-12.5 79.5t-32.5 74t-58 28t-58 -28t-32.5 -74t-12.5 -79.5t-3 -69.5z" />
    <glyph glyph-name="P" unicode="P" horiz-adv-x="487" 
d="M202 0h-149v754h155q71 0 108 -9q148 -39 148 -214q0 -104 -62 -163t-167 -59l-33 2v-311zM202 631v-199q113 -5 113 101q0 98 -85 98h-28z" />
    <glyph glyph-name="Q" unicode="Q" horiz-adv-x="582" 
d="M315 307l68 -75q14 50 14 145q0 36 -3 69.5t-12.5 79.5t-32.5 74t-58 28t-58 -28t-32.5 -74t-12.5 -79.5t-3 -69.5q0 -33 3 -66.5t12.5 -80t32.5 -75.5t58 -29q19 0 36 13l-89 93zM500 111l65 -66l-78 -74l-58 63q-59 -46 -138 -46q-52 0 -98 21.5t-84 66t-60.5 122
t-22.5 179.5t22.5 179.5t60.5 122t84 66t98 21.5t98 -21.5t84 -66t60.5 -122t22.5 -179.5q0 -173 -56 -266z" />
    <glyph glyph-name="R" unicode="R" horiz-adv-x="530" 
d="M202 0h-149v754h150q37 0 65 -2.5t68.5 -14.5t66.5 -33.5t45.5 -64t19.5 -101.5q0 -136 -107 -195l131 -343h-157l-131 348h-2v-348zM202 631v-201l26 -1q49 0 72 29.5t23 78.5q0 44 -24 70.5t-77 23.5h-20z" />
    <glyph glyph-name="S" unicode="S" horiz-adv-x="440" 
d="M363 729v-145q-55 48 -108 48q-35 0 -55 -20t-20 -54t23.5 -62t57 -51.5t66.5 -50.5t56.5 -70.5t23.5 -100.5q0 -104 -57.5 -169.5t-159.5 -65.5q-76 0 -128 38v142q58 -40 113 -40q37 0 61.5 22.5t24.5 59.5q0 14 -4 26.5t-9 21t-16 18.5t-17 14.5t-21.5 15t-20.5 14.5
q-71 48 -105 97.5t-34 126.5q0 94 52.5 158t144.5 64q69 0 132 -37z" />
    <glyph glyph-name="T" unicode="T" horiz-adv-x="414" 
d="M15 754h384v-140h-118v-614h-149v614h-117v140z" />
    <glyph glyph-name="U" unicode="U" horiz-adv-x="544" 
d="M49 754h149v-488q0 -75 9 -99q16 -44 65 -44q21 0 35.5 7t22 15t11 26.5t4.5 29t1 33.5v520h149v-550q0 -31 -2.5 -54t-15 -56t-34.5 -54t-66.5 -36.5t-105.5 -15.5q-107 0 -164.5 51t-57.5 155v560z" />
    <glyph glyph-name="V" unicode="V" horiz-adv-x="565" 
d="M8 754h160l90 -362q6 -19 10.5 -40.5t9 -48t7.5 -40.5h2q1 7 8.5 56t14.5 75l91 360h156l-209 -754h-122z" />
    <glyph glyph-name="W" unicode="W" horiz-adv-x="793" 
d="M8 754h152l64 -360q2 -12 16 -160h2q20 149 22 160l75 360h118l96 -520h2q2 18 4 50t4.5 58t6.5 50l59 362h156l-156 -754h-129l-77 398l-21 138h-2q-3 -15 -7 -43.5t-8 -51.5t-9 -43l-86 -398h-130z" />
    <glyph glyph-name="X" unicode="X" horiz-adv-x="545" 
d="M22 754h168l43 -105q30 -85 36 -115h2q11 51 34 115l45 105h161l-161 -365l173 -389h-173l-48 120q-11 31 -33 113h-2q-31 -107 -33 -113l-44 -120h-168l160 389z" />
    <glyph glyph-name="Y" unicode="Y" horiz-adv-x="514" 
d="M4 754h164l78 -205l11 -37h2l17 56l67 186h167l-176 -393v-361h-149v361z" />
    <glyph glyph-name="Z" unicode="Z" horiz-adv-x="508" 
d="M50 754h443l-258 -614h237v-140h-454l251 614h-219v140z" />
    <glyph glyph-name="bracketleft" unicode="[" horiz-adv-x="320" 
d="M53 754h251v-98h-121v-682h123v-98h-253v878z" />
    <glyph glyph-name="backslash" unicode="\" horiz-adv-x="250" 
d="M-128 807h114l393 -973h-114z" />
    <glyph glyph-name="bracketright" unicode="]" horiz-adv-x="320" 
d="M16 754h251v-878h-253v98h123v682h-121v98z" />
    <glyph glyph-name="asciicircum" unicode="^" 
d="M121 330l-100 47l164 377h120l165 -377l-100 -47l-125 291z" />
    <glyph glyph-name="underscore" unicode="_" horiz-adv-x="500" 
d="M0 -75h500v-50h-500v50z" />
    <glyph glyph-name="grave" unicode="`" horiz-adv-x="300" 
d="M153 754l96 -144l-69 -40l-129 138z" />
    <glyph glyph-name="a" unicode="a" horiz-adv-x="433" 
d="M219 119q16 0 26.5 16.5t15 42t6 44t1.5 33.5q0 16 -1.5 33.5t-6 43.5t-15.5 42t-28 16q-16 0 -27.5 -16t-15.5 -41.5t-5.5 -43t-1.5 -34.5q0 -136 52 -136zM258 0v57h-2q-34 -67 -93 -67q-40 0 -69 28.5t-42.5 73.5t-19.5 85t-6 76q0 40 5 79t18 83.5t42 72t70 27.5
q67 0 95 -72h2v62h141v-505h-141z" />
    <glyph glyph-name="b" unicode="b" horiz-adv-x="433" 
d="M35 0v807h141v-364h2q28 72 94 72q42 0 71 -27.5t41.5 -72.5t17.5 -83.5t5 -78.5q0 -37 -5.5 -76.5t-19 -84.5t-42.5 -73.5t-69 -28.5q-61 0 -93 67h-2v-57h-141zM215 119q51 0 51 136q0 16 -1.5 34t-6 43.5t-15.5 41.5t-27 16q-50 0 -50 -135q0 -16 1.5 -33.5t5.5 -43.5
t15 -42.5t27 -16.5z" />
    <glyph glyph-name="c" unicode="c" horiz-adv-x="315" 
d="M292 137v-129q-39 -18 -81 -18q-64 0 -108 42t-60.5 98t-16.5 119q0 50 10.5 95.5t32.5 85t61.5 62.5t91.5 23q36 0 70 -15v-124q-17 16 -41 16q-46 0 -65 -42t-19 -93q0 -135 82 -135q21 0 43 15z" />
    <glyph glyph-name="d" unicode="d" horiz-adv-x="433" 
d="M258 0v57h-2q-34 -67 -93 -67q-40 0 -69 28.5t-42.5 73.5t-19.5 85t-6 76q0 40 5 79t18 83.5t42 72t70 27.5q67 0 95 -72h2v364h141v-807h-141zM219 119q16 0 26.5 16.5t15 42t6 44t1.5 33.5q0 16 -1.5 33.5t-6 43.5t-15.5 42t-28 16q-16 0 -27.5 -16t-15.5 -41.5
t-5.5 -43t-1.5 -34.5q0 -136 52 -136z" />
    <glyph glyph-name="e" unicode="e" horiz-adv-x="414" 
d="M266 302v12q0 93 -51 93q-20 0 -32.5 -16.5t-16 -35t-3.5 -38.5v-15h103zM388 273l-3 -58h-223q2 -74 17 -97q13 -20 36 -20q45 0 45 58h120q-10 -76 -46 -118q-40 -48 -114 -48q-99 0 -146.5 73t-47.5 179q0 49 9.5 94.5t30.5 87t60 66.5t91 25q75 0 126 -64.5
t45 -177.5z" />
    <glyph glyph-name="f" unicode="f" horiz-adv-x="299" 
d="M19 505h52v142q0 40 5 67.5t20 52.5t44.5 37.5t75.5 12.5q27 0 61 -12v-136q-14 8 -25 8q-7 0 -13 -1.5t-10 -5.5t-7 -7.5t-5 -10t-3 -10.5t-1.5 -12t-0.5 -12v-12.5v-10.5v-90h65v-116h-65v-389h-141v389h-52v116z" />
    <glyph glyph-name="g" unicode="g" horiz-adv-x="437" 
d="M220 119q16 0 26.5 16.5t14.5 42.5t5.5 43.5t1.5 33.5q0 135 -50 135q-17 0 -28 -16t-15.5 -41.5t-6 -43t-1.5 -34.5q0 -136 53 -136zM31 -67h125q4 -72 51 -72q13 0 23 5t15.5 15.5t9 19.5t5 26t2 25t0 26.5t-0.5 20.5v64h-2q-17 -34 -34 -50q-23 -23 -57 -23
q-66 0 -109 84q-33 66 -33 171q0 41 5 80.5t17.5 86t42 75t71.5 28.5q34 0 59 -19.5t38 -51.5h2v61h141v-549q0 -109 -47 -158t-142 -49q-171 0 -182 184z" />
    <glyph glyph-name="h" unicode="h" horiz-adv-x="424" 
d="M35 807h141v-380h2q15 38 46.5 63t70.5 25q23 0 40.5 -7t27.5 -23t16 -28.5t8.5 -38t2.5 -37v-39.5v-16v-326h-141v277q0 1 0.5 19t0 27t-3.5 23t-11 20.5t-21 6.5q-38 0 -38 -58v-315h-141v807z" />
    <glyph glyph-name="i" unicode="i" horiz-adv-x="209" 
d="M34 505h141v-505h-141v505zM104 565q-37 0 -63 26.5t-26 64.5t26.5 63.5t65.5 25.5q36 0 61.5 -27t25.5 -64q0 -36 -26.5 -62.5t-63.5 -26.5z" />
    <glyph glyph-name="j" unicode="j" horiz-adv-x="209" 
d="M34 505h141v-754h-141v754zM104 565q-37 0 -63 26.5t-26 64.5t26.5 63.5t65.5 25.5q36 0 61.5 -27t25.5 -64q0 -36 -26.5 -62.5t-63.5 -26.5z" />
    <glyph glyph-name="k" unicode="k" horiz-adv-x="440" 
d="M35 807h141v-479h2l77 177h153l-114 -206l139 -299h-155l-100 234h-2v-234h-141v807z" />
    <glyph glyph-name="l" unicode="l" horiz-adv-x="210" 
d="M35 807h141v-807h-141v807z" />
    <glyph glyph-name="m" unicode="m" horiz-adv-x="639" 
d="M176 505l1 -81h2q45 91 124 91q37 0 59 -24.5t28 -61.5h2q19 37 51 61.5t70 24.5q26 0 44.5 -12t27 -27t13.5 -41.5t5.5 -42.5t0.5 -43v-349h-141v274q0 2 0.5 13.5t0 18t-1 18.5t-3 19.5t-6 15t-10 11.5t-15.5 4q-38 0 -38 -57v-317h-141v283q0 3 0.5 13t0 16t-1 16
t-2.5 17t-5.5 13.5t-10 10t-14.5 3.5q-40 0 -40 -58v-314h-141v505h141z" />
    <glyph glyph-name="n" unicode="n" horiz-adv-x="424" 
d="M176 505v-78h2q15 38 46.5 63t70.5 25q23 0 40.5 -7t27.5 -23t16 -28.5t8.5 -38t2.5 -37v-39.5v-16v-326h-141v277q0 1 0.5 19t0 27t-3.5 23t-11 20.5t-21 6.5q-38 0 -38 -58v-315h-141v505h141z" />
    <glyph glyph-name="o" unicode="o" horiz-adv-x="436" 
d="M218 515q54 0 93 -22.5t60 -61.5t30 -83t9 -96t-9 -96t-30 -83t-60 -61t-93 -22t-93 22t-60 61t-30 83t-9 96t9 96t30 83t60 61.5t93 22.5zM218 388q-51 0 -51 -136t51 -136t51 136t-51 136z" />
    <glyph glyph-name="p" unicode="p" horiz-adv-x="433" 
d="M215 119q51 0 51 136q0 16 -1.5 34t-6 43.5t-15.5 41.5t-27 16q-50 0 -50 -135q0 -16 1.5 -33.5t5.5 -43.5t15 -42.5t27 -16.5zM176 505v-62h2q28 72 94 72q42 0 71 -27.5t41.5 -72.5t17.5 -83.5t5 -78.5q0 -37 -5.5 -76.5t-19 -84.5t-42.5 -73.5t-69 -28.5q-61 0 -93 67
h-2v-306h-141v754h141z" />
    <glyph glyph-name="q" unicode="q" horiz-adv-x="433" 
d="M399 505v-754h-141v306h-2q-34 -67 -93 -67q-40 0 -69 28.5t-42.5 73.5t-19.5 85t-6 76q0 40 5 79t18 83.5t42 72t70 27.5q67 0 95 -72h2v62h141zM219 119q16 0 26.5 16.5t15 42t6 44t1.5 33.5q0 16 -1.5 33.5t-6 43.5t-15.5 42t-28 16q-16 0 -27.5 -16t-15.5 -41.5
t-5.5 -43t-1.5 -34.5q0 -136 52 -136z" />
    <glyph glyph-name="r" unicode="r" horiz-adv-x="315" 
d="M35 505h141v-61h2q43 73 115 80v-137q-14 2 -22 2q-27 0 -46 -8t-28.5 -18t-14 -31t-5.5 -36t-1 -44v-252h-141v505z" />
    <glyph glyph-name="s" unicode="s" horiz-adv-x="376" 
d="M346 472l-57 -103q-37 33 -68 33q-38 0 -38 -37q1 -16 17.5 -28.5t40 -24t47 -27t40 -46t16.5 -72.5q0 -78 -43 -127.5t-119 -49.5q-82 0 -152 58l62 100q38 -33 70 -33q17 0 29 11.5t12 30.5q1 18 -15.5 31.5t-40.5 25.5t-47.5 28.5t-40.5 48.5t-17 76q0 69 49 108.5
t120 39.5q76 0 135 -43z" />
    <glyph glyph-name="t" unicode="t" horiz-adv-x="308" 
d="M79 645h141v-140h58v-116h-58v-389h-141v389h-49v116h49v140z" />
    <glyph glyph-name="u" unicode="u" horiz-adv-x="423" 
d="M35 505h141v-277q0 -2 -1 -21t0 -29.5t4 -25.5t11.5 -22.5t21.5 -7.5q36 0 35 70v5l1 308h140v-322q0 -91 -44.5 -142t-135.5 -51q-46 0 -79.5 14t-51 33.5t-27.5 50.5t-12.5 56t-2.5 58v303z" />
    <glyph glyph-name="v" unicode="v" horiz-adv-x="452" 
d="M15 505h140l67 -277l1 -8h2l11 52l55 233h146l-146 -505h-131z" />
    <glyph glyph-name="w" unicode="w" horiz-adv-x="694" 
d="M15 505h137l68 -296h2l66 296h121l64 -296h2l10 54l60 242h134l-140 -505h-116l-46 171l-30 146h-2l-29 -161l-40 -156h-118z" />
    <glyph glyph-name="x" unicode="x" horiz-adv-x="489" 
d="M42 505h146l40 -77l15 -31l57 108h146l-129 -233l149 -272h-149l-74 139l-75 -139h-145l145 272z" />
    <glyph glyph-name="y" unicode="y" horiz-adv-x="452" 
d="M15 505h142l53 -204l17 -84h2l66 288h142l-217 -754h-139l81 259z" />
    <glyph glyph-name="z" unicode="z" horiz-adv-x="401" 
d="M39 505h339l-156 -388h139v-117h-338l160 388h-144v117z" />
    <glyph glyph-name="braceleft" unicode="{" horiz-adv-x="300" 
d="M303 -124h-65q-86 0 -115.5 36t-29.5 119v138q0 106 -75 106v76q75 0 75 106v162q0 70 28 102.5t95 32.5h87v-76q-47 0 -63.5 -25.5t-16.5 -74.5v-132q0 -59 -17 -89.5t-65 -41.5v-2q48 -8 65 -45.5t17 -96.5v-119q0 -46 17 -73t63 -27v-76z" />
    <glyph glyph-name="bar" unicode="|" horiz-adv-x="250" 
d="M70 786h110v-1000h-110v1000z" />
    <glyph glyph-name="braceright" unicode="}" horiz-adv-x="300" 
d="M62 -124h-65v76q46 0 63 27t17 73v119q0 59 17 96.5t65 45.5v2q-48 11 -65 41.5t-17 89.5v132q0 49 -16.5 74.5t-63.5 25.5v76h87q67 0 95 -32.5t28 -102.5v-162q0 -106 75 -106v-76q-75 0 -75 -106v-138q0 -83 -29.5 -119t-115.5 -36z" />
    <glyph glyph-name="asciitilde" unicode="~" 
d="M414 359l56 -73q-39 -69 -62 -89q-30 -28 -67 -28q-33 0 -103 33t-83 33q-10 0 -19 -4t-15 -9t-13.5 -16t-10.5 -16.5t-10 -19.5t-9 -17l-57 74q27 55 58 89.5t75 34.5q35 0 102 -33t85 -33q13 0 25 8.5t17.5 15.5t17 27t13.5 23z" />
    <glyph glyph-name="uni00A0" unicode="&#xa0;" horiz-adv-x="245" 
 />
    <glyph glyph-name="exclamdown" unicode="&#xa1;" horiz-adv-x="246" 
d="M196 -249h-147v528h147v-528zM123 518q39 0 67 -28t28 -67t-28 -67t-67 -28t-67 28t-28 67t28 67t67 28z" />
    <glyph glyph-name="cent" unicode="&#xa2;" 
d="M214 51v65q-50 15 -82.5 55.5t-44.5 87t-12 100.5q0 43 6 82.5t20.5 80t43.5 70.5t69 43v69h65v-63q34 -3 59 -14v-127q-21 15 -37 15q-23 0 -39.5 -15.5t-25 -39.5t-12 -46.5t-3.5 -43.5q0 -47 17 -86t58 -39q19 0 42 13v-127q-23 -11 -59 -18v-62h-65z" />
    <glyph glyph-name="sterling" unicode="&#xa3;" 
d="M44 0v113q63 65 60 167h-93v77h86q-2 24 -13 85t-11 96q0 100 57 161t156 61q197 0 194 -225h-128l1 16q0 86 -58 86q-39 0 -57.5 -28.5t-18.5 -66.5q0 -32 10.5 -94t11.5 -91h127v-77h-130q-6 -88 -47 -158l21 1q26 0 76.5 -10t77.5 -10q60 0 109 25v-118
q-36 -21 -87 -21q-41 0 -118.5 14.5t-117.5 14.5q-52 0 -108 -18z" />
    <glyph glyph-name="currency" unicode="&#xa4;" 
d="M4 137l42 44q-35 65 -35 128q0 69 35 129l-42 42l76 80l42 -43q62 38 123 38q67 0 127 -38l43 43l72 -80l-41 -42q36 -60 36 -128q0 -76 -36 -129l41 -44l-72 -79l-43 43q-63 -38 -123 -38q-69 0 -127 38l-42 -43zM247 437q-49 0 -83.5 -38.5t-34.5 -88.5t35 -89.5
t83 -39.5q49 0 83 39.5t34 89.5t-34 88.5t-83 38.5z" />
    <glyph glyph-name="yen" unicode="&#xa5;" 
d="M498 754l-127 -286h75v-66h-105l-18 -41v-43h123v-66h-123v-252h-151v252h-124v66h124v43l-19 41h-105v66h75l-131 286h164l78 -245l11 -37h2l84 282h167z" />
    <glyph glyph-name="brokenbar" unicode="&#xa6;" horiz-adv-x="250" 
d="M70 661h110v-250h-110v250zM70 161h110v-250h-110v250z" />
    <glyph glyph-name="section" unicode="&#xa7;" horiz-adv-x="491" 
d="M261 211l11 -7q59 20 59 75q0 17 -5 30.5t-20.5 26.5t-22 18t-31 18.5t-25.5 14.5l-23 13q-45 -26 -45 -72q0 -9 2 -18t4 -15.5t7.5 -14t8.5 -12.5t11.5 -12t12 -10t14 -9.5t13.5 -8.5t15 -9t14 -8zM188 10v-13q0 -72 67 -72q24 0 36 19t12 48q0 12 -3 23t-5 18.5
t-10.5 17t-11.5 13.5t-16.5 13t-16 11t-19.5 12t-18 11q-6 4 -31 18.5t-32.5 19t-27.5 18.5t-27 22t-20.5 23t-19 28.5t-10 32t-5.5 38.5q0 91 79 145q-28 21 -44 56t-16 74q1 90 55.5 135t135.5 45q92 0 144 -48.5t52 -139.5v-21h-133v23q0 79 -65 79q-58 0 -58 -62
q2 -14 7 -26t14 -22.5t15.5 -17.5t21 -16t20 -12.5t23 -12.5t21.5 -11q82 -43 106 -65q50 -45 52 -120q5 -103 -92 -158q75 -50 75 -153q0 -78 -54.5 -121.5t-134.5 -43.5q-87 0 -145 44.5t-58 128.5v19h137z" />
    <glyph glyph-name="dieresis" unicode="&#xa8;" horiz-adv-x="300" 
d="M121 659q0 -30 -22 -51.5t-53 -21.5q-30 0 -52 21.5t-22 51.5q0 32 22 54t54 22q30 0 51.5 -22.5t21.5 -53.5zM329 659q0 -30 -22 -51.5t-53 -21.5q-30 0 -52 21.5t-22 51.5q0 32 22 54t54 22q30 0 51.5 -22.5t21.5 -53.5z" />
    <glyph glyph-name="copyright" unicode="&#xa9;" horiz-adv-x="830" 
d="M416 -12q-164 0 -279 114t-115 277q0 161 115 274t279 113q163 0 277.5 -113t114.5 -274q0 -163 -114.5 -277t-277.5 -114zM416 61q130 1 222 94t92 224q0 130 -92 222t-222 92q-132 0 -224 -92t-92 -222q0 -132 92 -224.5t224 -93.5zM527 309h89q-8 -69 -60.5 -110.5
t-123.5 -41.5q-97 0 -157 64.5t-60 160.5q0 98 58.5 161t156.5 63q72 0 122.5 -39.5t63.5 -108.5h-89q-7 36 -33.5 56t-64.5 20q-60 0 -93 -44t-33 -106q0 -60 35.5 -107.5t93.5 -47.5q37 0 65 22.5t30 57.5z" />
    <glyph glyph-name="ordfeminine" unicode="&#xaa;" horiz-adv-x="300" 
d="M178 760h93v-303h-93v34h-2q-19 -40 -59 -40q-25 0 -44 16.5t-28 42.5t-13 51t-4 48q0 24 3 47t11.5 50t27.5 43.5t46 16.5q43 0 61 -43h1v37zM152 690q-32 0 -32 -80q0 -83 34 -83q13 0 21 19t9.5 34.5t1.5 29.5q0 80 -34 80z" />
    <glyph glyph-name="guillemotleft" unicode="&#xab;" horiz-adv-x="433" 
d="M406 525l-103 -195l103 -189l-77 -43l-130 232l130 234zM233 525l-102 -195l102 -189l-76 -43l-131 232l131 234z" />
    <glyph glyph-name="logicalnot" unicode="&#xac;" 
d="M360 112v186h-339v110h449v-296h-110z" />
    <glyph glyph-name="uni00AD" unicode="&#xad;" horiz-adv-x="318" 
d="M34 397h250v-133h-250v133z" />
    <glyph glyph-name="registered" unicode="&#xae;" horiz-adv-x="830" 
d="M416 -12q-164 0 -279 114t-115 277q0 161 115 274t279 113q163 0 277.5 -113t114.5 -274q0 -163 -114.5 -277t-277.5 -114zM416 61q130 1 222 94t92 224q0 130 -92 222t-222 92q-132 0 -224 -92t-92 -222q0 -132 92 -224.5t224 -93.5zM508 347l103 -180h-97l-94 180h-83
v-180h-83v425h205q81 0 115 -21q50 -33 50 -110q0 -56 -29 -83t-87 -31zM337 410h124q39 -1 59.5 12.5t20.5 51.5q0 19 -9 31.5t-27 17t-30.5 5.5t-34.5 1h-103v-119z" />
    <glyph glyph-name="macron" unicode="&#xaf;" horiz-adv-x="300" 
d="M323 666h-346v74h346v-74z" />
    <glyph glyph-name="degree" unicode="&#xb0;" horiz-adv-x="400" 
d="M200 766q62 0 106 -44t44 -106t-44 -106t-106 -44t-106 44t-44 106q-1 62 43.5 106t106.5 44zM200 687q-29 0 -50.5 -21t-20.5 -50q0 -30 21 -50.5t51 -20.5q29 0 49.5 20.5t20.5 50.5q0 29 -20.5 50t-50.5 21z" />
    <glyph glyph-name="plusminus" unicode="&#xb1;" 
d="M190 394v134h110v-134h170v-110h-170v-134h-110v134h-169v110h169zM21 0v110h449v-110h-449z" />
    <glyph glyph-name="twosuperior" unicode="&#xb2;" horiz-adv-x="294" 
d="M119 596h-95l-2 25q0 67 29 103.5t103 36.5q134 0 134 -116q0 -52 -40 -123l-85 -134h117v-82h-263l110 182q63 108 63 154q0 52 -36 52t-36 -69z" />
    <glyph glyph-name="threesuperior" unicode="&#xb3;" horiz-adv-x="294" 
d="M103 425v-13q0 -17 8.5 -30t24.5 -13q39 0 39 72q0 36 -15.5 49.5t-54.5 11.5v76q39 0 55 12t16 47q0 49 -30 49t-30 -50v-9h-90q-2 62 25 97q31 37 93 37q61 0 94 -32t33 -86q0 -83 -60 -105v-2q38 -8 56.5 -37t18.5 -67q0 -62 -39 -97.5t-109 -35.5q-64 0 -99.5 34.5
t-32.5 91.5h97z" />
    <glyph glyph-name="acute" unicode="&#xb4;" horiz-adv-x="300" 
d="M147 754l102 -46l-129 -138l-69 40z" />
    <glyph glyph-name="mu" unicode="&#xb5;" horiz-adv-x="423" 
d="M248 505h141v-326v-16q0 -25 -0.5 -39t-2.5 -38t-8 -38t-16 -29t-27.5 -22t-40.5 -7q-40 0 -71 25t-46 63h-2v-327h-141v754h141v-315q0 -58 38 -58q13 0 21 6.5t11 20.5t3.5 23t0 27t-0.5 19v277z" />
    <glyph glyph-name="paragraph" unicode="&#xb6;" horiz-adv-x="600" 
d="M371 -112v748h-68v-748h-118v517q-76 0 -116.5 47t-40.5 124q0 97 50.5 137.5t149.5 40.5h303v-118h-42v-748h-118z" />
    <glyph glyph-name="periodcentered" unicode="&#xb7;" horiz-adv-x="245" 
d="M122 351q40 0 67.5 -28t27.5 -67t-27.5 -67t-67.5 -28t-67.5 28t-27.5 67t27.5 67t67.5 28z" />
    <glyph glyph-name="cedilla" unicode="&#xb8;" horiz-adv-x="300" 
d="M144 -48l90 -36l-105 -134l-63 32z" />
    <glyph glyph-name="onesuperior" unicode="&#xb9;" horiz-adv-x="294" 
d="M57 754h149v-448h-102v370h-47v78z" />
    <glyph glyph-name="ordmasculine" unicode="&#xba;" horiz-adv-x="300" 
d="M150 766q67 0 96 -45t29 -113q0 -67 -29 -112t-96 -45t-96 45t-29 112q0 68 29 113t96 45zM150 690q-33 0 -33 -82q0 -81 33 -81t33 81q0 82 -33 82z" />
    <glyph glyph-name="guillemotright" unicode="&#xbb;" horiz-adv-x="433" 
d="M103 564l131 -234l-131 -232l-76 43l102 189l-102 195zM276 564l131 -234l-131 -232l-76 43l102 189l-102 195z" />
    <glyph glyph-name="onequarter" unicode="&#xbc;" horiz-adv-x="735" 
d="M549 0v106h-145v70l130 272h117v-262h38v-80h-38v-106h-102zM489 754h86l-359 -754h-87zM53 754h149v-448h-102v370h-47v78zM549 186v164h-2l-70 -164h72z" />
    <glyph glyph-name="onehalf" unicode="&#xbd;" horiz-adv-x="735" 
d="M462 754h86l-359 -754h-87zM56 754h149v-448h-102v370h-47v78zM676 0h-263l110 182q63 108 63 154q0 52 -36 52t-36 -69l1 -29h-95l-2 25q0 67 29 103.5t103 36.5q134 0 134 -116q0 -52 -40 -123l-85 -134h117v-82z" />
    <glyph glyph-name="threequarters" unicode="&#xbe;" horiz-adv-x="735" 
d="M669 0h-102v106h-145v70l130 272h117v-262h38v-80h-38v-106zM567 184v162h-2l-70 -162h72zM532 754h86l-359 -754h-87zM126 425v-13q0 -17 8.5 -30t24.5 -13q39 0 39 72q0 36 -15.5 49.5t-54.5 11.5v76q39 0 55 12t16 47q0 49 -30 49t-30 -50v-9h-90q-2 62 25 97
q31 37 93 37q61 0 94 -32t33 -86q0 -83 -60 -105v-2q38 -8 56.5 -37t18.5 -67q0 -62 -39 -97.5t-109 -35.5q-64 0 -99.5 34.5t-32.5 91.5h97z" />
    <glyph glyph-name="questiondown" unicode="&#xbf;" horiz-adv-x="454" 
d="M148 269h149v-186q-13 3 -25 3q-46 0 -66.5 -35t-20.5 -84q0 -21 3 -40.5t16 -38.5t34 -19q25 0 37 22t12 50v18h141q4 -99 -45.5 -159.5t-146.5 -60.5t-153.5 63t-56.5 162q0 70 30.5 130.5t91.5 76.5v98zM222 518q40 0 68 -28t28 -67t-28 -67t-68 -28q-38 0 -66 28
t-28 67t28 67t66 28z" />
    <glyph glyph-name="Agrave" unicode="&#xc0;" horiz-adv-x="528" 
d="M183 754h157l181 -754h-159l-28 127h-151l-27 -127h-148zM312 245l-38 201l-17 114h-2l-16 -114l-32 -201h105zM252 978l96 -144l-69 -40l-129 138z" />
    <glyph glyph-name="Aacute" unicode="&#xc1;" horiz-adv-x="528" 
d="M183 754h157l181 -754h-159l-28 127h-151l-27 -127h-148zM312 245l-38 201l-17 114h-2l-16 -114l-32 -201h105zM276 978l102 -46l-129 -138l-69 40z" />
    <glyph glyph-name="Acircumflex" unicode="&#xc2;" horiz-adv-x="528" 
d="M183 754h157l181 -754h-159l-28 127h-151l-27 -127h-148zM312 245l-38 201l-17 114h-2l-16 -114l-32 -201h105zM263 972l146 -121l-61 -62l-85 70l-88 -70l-55 70z" />
    <glyph glyph-name="Atilde" unicode="&#xc3;" horiz-adv-x="528" 
d="M183 754h157l181 -754h-159l-28 127h-151l-27 -127h-148zM312 245l-38 201l-17 114h-2l-16 -114l-32 -201h105zM352 964l75 -5q-5 -29 -10 -47t-15.5 -40.5t-29 -34t-45.5 -11.5q-28 0 -78 22q-30 13 -42 13q-27 0 -32 -32h-73q3 28 7 47t13.5 41t28 33.5t45.5 11.5
q28 0 66 -19t54 -19q32 0 36 40z" />
    <glyph glyph-name="Adieresis" unicode="&#xc4;" horiz-adv-x="528" 
d="M183 754h157l181 -754h-159l-28 127h-151l-27 -127h-148zM312 245l-38 201l-17 114h-2l-16 -114l-32 -201h105zM235 883q0 -30 -22 -51.5t-53 -21.5q-30 0 -52 21.5t-22 51.5q0 32 22 54t54 22q30 0 51.5 -22.5t21.5 -53.5zM443 883q0 -30 -22 -51.5t-53 -21.5
q-30 0 -52 21.5t-22 51.5q0 32 22 54t54 22q30 0 51.5 -22.5t21.5 -53.5z" />
    <glyph glyph-name="Aring" unicode="&#xc5;" horiz-adv-x="528" 
d="M183 754h157l181 -754h-159l-28 127h-151l-27 -127h-148zM312 245l-38 201l-17 114h-2l-16 -114l-32 -201h105zM259 773q-45 0 -77 31.5t-32 77.5t32 77t78 31q44 0 75 -32.5t31 -77.5q0 -44 -31.5 -75.5t-75.5 -31.5zM259 839q17 0 29 12.5t12 28.5q0 18 -12 31t-29 13
q-18 0 -30.5 -12t-12.5 -31q0 -18 12.5 -30t30.5 -12z" />
    <glyph glyph-name="AE" unicode="&#xc6;" horiz-adv-x="674" 
d="M311 244l-31 143l-25 172h-2l-49 -315h107zM364 0l-28 126h-157l-23 -126h-148l171 754h307l32 -140h-149l39 -156h149l34 -140h-147l42 -178h145l35 -140h-302z" />
    <glyph glyph-name="Ccedilla" unicode="&#xc7;" horiz-adv-x="452" 
d="M429 749v-137q-30 8 -56 8q-92 0 -140 -69.5t-48 -165.5q0 -60 18.5 -115t63 -95t105.5 -40q22 0 57 11v-141q-32 -13 -69 -13q-103 0 -181 57.5t-115.5 145t-37.5 189.5q0 95 38.5 180.5t115 142t173.5 56.5q37 0 76 -14zM250 -48l90 -36l-105 -134l-63 32z" />
    <glyph glyph-name="Egrave" unicode="&#xc8;" horiz-adv-x="392" 
d="M53 754h300v-140h-151v-164h133v-140h-133v-170h153v-140h-302v754zM184 978l96 -144l-69 -40l-129 138z" />
    <glyph glyph-name="Eacute" unicode="&#xc9;" horiz-adv-x="392" 
d="M53 754h300v-140h-151v-164h133v-140h-133v-170h153v-140h-302v754zM228 978l102 -46l-129 -138l-69 40z" />
    <glyph glyph-name="Ecircumflex" unicode="&#xca;" horiz-adv-x="392" 
d="M53 754h300v-140h-151v-164h133v-140h-133v-170h153v-140h-302v754zM195 972l146 -121l-61 -62l-85 70l-88 -70l-55 70z" />
    <glyph glyph-name="Edieresis" unicode="&#xcb;" horiz-adv-x="392" 
d="M53 754h300v-140h-151v-164h133v-140h-133v-170h153v-140h-302v754zM167 883q0 -30 -22 -51.5t-53 -21.5q-30 0 -52 21.5t-22 51.5q0 32 22 54t54 22q30 0 51.5 -22.5t21.5 -53.5zM375 883q0 -30 -22 -51.5t-53 -21.5q-30 0 -52 21.5t-22 51.5q0 32 22 54t54 22
q30 0 51.5 -22.5t21.5 -53.5z" />
    <glyph glyph-name="Igrave" unicode="&#xcc;" horiz-adv-x="255" 
d="M53 754h149v-754h-149v754zM110 978l96 -144l-69 -40l-129 138z" />
    <glyph glyph-name="Iacute" unicode="&#xcd;" horiz-adv-x="255" 
d="M53 754h149v-754h-149v754zM144 978l102 -46l-129 -138l-69 40z" />
    <glyph glyph-name="Icircumflex" unicode="&#xce;" horiz-adv-x="255" 
d="M53 754h149v-754h-149v754zM127 972l146 -121l-61 -62l-85 70l-88 -70l-55 70z" />
    <glyph glyph-name="Idieresis" unicode="&#xcf;" horiz-adv-x="255" 
d="M53 754h149v-754h-149v754zM99 883q0 -30 -22 -51.5t-53 -21.5q-30 0 -52 21.5t-22 51.5q0 32 22 54t54 22q30 0 51.5 -22.5t21.5 -53.5zM307 883q0 -30 -22 -51.5t-53 -21.5q-30 0 -52 21.5t-22 51.5q0 32 22 54t54 22q30 0 51.5 -22.5t21.5 -53.5z" />
    <glyph glyph-name="Eth" unicode="&#xd0;" horiz-adv-x="530" 
d="M186 0h-133v310h-53v139h53v305h113h6q9 -1 25 1t37.5 -2t46.5 -8t51 -18t50.5 -31t46.5 -47.5t39 -68t26.5 -91.5t9.5 -118q0 -371 -318 -371zM355 372q0 41 -7 80t-23 79t-47.5 64.5t-75.5 24.5v-170h53v-140h-53v-176q42 -2 74 21t48 61.5t23.5 77.5t7.5 78z" />
    <glyph glyph-name="Ntilde" unicode="&#xd1;" horiz-adv-x="573" 
d="M53 754h143l186 -455l2 2q-12 48 -12 114v339h149v-754h-141l-184 455l-2 -2l7 -76l1 -31v-346h-149v754zM375 964l75 -5q-5 -29 -10 -47t-15.5 -40.5t-29 -34t-45.5 -11.5q-28 0 -78 22q-30 13 -42 13q-27 0 -32 -32h-73q3 28 7 47t13.5 41t28 33.5t45.5 11.5
q28 0 65.5 -19t54.5 -19q32 0 36 40z" />
    <glyph glyph-name="Ograve" unicode="&#xd2;" horiz-adv-x="582" 
d="M291 766q52 0 98 -21.5t84 -66t60.5 -122t22.5 -179.5t-22.5 -179.5t-60.5 -122t-84 -66t-98 -21.5t-98 21.5t-84 66t-60.5 122t-22.5 179.5t22.5 179.5t60.5 122t84 66t98 21.5zM185 377q0 -33 3 -66.5t12.5 -80t32.5 -75.5t58 -29t58 29t32.5 75.5t12.5 80t3 66.5
q0 36 -3 69.5t-12.5 79.5t-32.5 74t-58 28t-58 -28t-32.5 -74t-12.5 -79.5t-3 -69.5zM269 978l96 -144l-69 -40l-129 138z" />
    <glyph glyph-name="Oacute" unicode="&#xd3;" horiz-adv-x="582" 
d="M291 766q52 0 98 -21.5t84 -66t60.5 -122t22.5 -179.5t-22.5 -179.5t-60.5 -122t-84 -66t-98 -21.5t-98 21.5t-84 66t-60.5 122t-22.5 179.5t22.5 179.5t60.5 122t84 66t98 21.5zM185 377q0 -33 3 -66.5t12.5 -80t32.5 -75.5t58 -29t58 29t32.5 75.5t12.5 80t3 66.5
q0 36 -3 69.5t-12.5 79.5t-32.5 74t-58 28t-58 -28t-32.5 -74t-12.5 -79.5t-3 -69.5zM323 978l102 -46l-129 -138l-69 40z" />
    <glyph glyph-name="Ocircumflex" unicode="&#xd4;" horiz-adv-x="582" 
d="M291 766q52 0 98 -21.5t84 -66t60.5 -122t22.5 -179.5t-22.5 -179.5t-60.5 -122t-84 -66t-98 -21.5t-98 21.5t-84 66t-60.5 122t-22.5 179.5t22.5 179.5t60.5 122t84 66t98 21.5zM185 377q0 -33 3 -66.5t12.5 -80t32.5 -75.5t58 -29t58 29t32.5 75.5t12.5 80t3 66.5
q0 36 -3 69.5t-12.5 79.5t-32.5 74t-58 28t-58 -28t-32.5 -74t-12.5 -79.5t-3 -69.5zM290 972l146 -121l-61 -62l-85 70l-88 -70l-55 70z" />
    <glyph glyph-name="Otilde" unicode="&#xd5;" horiz-adv-x="582" 
d="M291 766q52 0 98 -21.5t84 -66t60.5 -122t22.5 -179.5t-22.5 -179.5t-60.5 -122t-84 -66t-98 -21.5t-98 21.5t-84 66t-60.5 122t-22.5 179.5t22.5 179.5t60.5 122t84 66t98 21.5zM185 377q0 -33 3 -66.5t12.5 -80t32.5 -75.5t58 -29t58 29t32.5 75.5t12.5 80t3 66.5
q0 36 -3 69.5t-12.5 79.5t-32.5 74t-58 28t-58 -28t-32.5 -74t-12.5 -79.5t-3 -69.5zM379 964l75 -5q-5 -29 -10 -47t-15.5 -40.5t-29 -34t-45.5 -11.5q-28 0 -78 22q-30 13 -42 13q-27 0 -32 -32h-73q3 28 7 47t13.5 41t28 33.5t45.5 11.5q29 0 66 -19t54 -19q32 0 36 40z
" />
    <glyph glyph-name="Odieresis" unicode="&#xd6;" horiz-adv-x="582" 
d="M291 766q52 0 98 -21.5t84 -66t60.5 -122t22.5 -179.5t-22.5 -179.5t-60.5 -122t-84 -66t-98 -21.5t-98 21.5t-84 66t-60.5 122t-22.5 179.5t22.5 179.5t60.5 122t84 66t98 21.5zM185 377q0 -33 3 -66.5t12.5 -80t32.5 -75.5t58 -29t58 29t32.5 75.5t12.5 80t3 66.5
q0 36 -3 69.5t-12.5 79.5t-32.5 74t-58 28t-58 -28t-32.5 -74t-12.5 -79.5t-3 -69.5zM262 883q0 -30 -22 -51.5t-53 -21.5q-30 0 -52 21.5t-22 51.5q0 32 22 54t54 22q30 0 51.5 -22.5t21.5 -53.5zM470 883q0 -30 -22 -51.5t-53 -21.5q-30 0 -52 21.5t-22 51.5q0 32 22 54
t54 22q30 0 51.5 -22.5t21.5 -53.5z" />
    <glyph glyph-name="multiply" unicode="&#xd7;" 
d="M392 29l-149 149l-144 -144l-78 78l144 144l-144 144l78 78l144 -144l149 149l78 -78l-149 -149l149 -149z" />
    <glyph glyph-name="Oslash" unicode="&#xd8;" horiz-adv-x="582" 
d="M185 382l6 -107h2l177 290q-29 63 -78 63q-107 0 -107 -246zM397 361l-3 107h-2l-175 -285q28 -57 77 -57q32 0 54.5 26.5t32 68.5t13 75t3.5 65zM497 760l57 -34l-53 -85q55 -93 55 -267q0 -90 -18 -160.5t-45.5 -111.5t-64 -68t-69.5 -36.5t-67 -9.5q-85 0 -162 63
l-37 -58l-58 37l50 78q-59 96 -59 271q0 71 13 135t42 123t84 94t131 35q93 0 161 -68z" />
    <glyph glyph-name="Ugrave" unicode="&#xd9;" horiz-adv-x="544" 
d="M49 754h149v-488q0 -75 9 -99q16 -44 65 -44q21 0 35.5 7t22 15t11 26.5t4.5 29t1 33.5v520h149v-550q0 -31 -2.5 -54t-15 -56t-34.5 -54t-66.5 -36.5t-105.5 -15.5q-107 0 -164.5 51t-57.5 155v560zM240 978l96 -144l-69 -40l-129 138z" />
    <glyph glyph-name="Uacute" unicode="&#xda;" horiz-adv-x="544" 
d="M49 754h149v-488q0 -75 9 -99q16 -44 65 -44q21 0 35.5 7t22 15t11 26.5t4.5 29t1 33.5v520h149v-550q0 -31 -2.5 -54t-15 -56t-34.5 -54t-66.5 -36.5t-105.5 -15.5q-107 0 -164.5 51t-57.5 155v560zM304 978l102 -46l-129 -138l-69 40z" />
    <glyph glyph-name="Ucircumflex" unicode="&#xdb;" horiz-adv-x="544" 
d="M49 754h149v-488q0 -75 9 -99q16 -44 65 -44q21 0 35.5 7t22 15t11 26.5t4.5 29t1 33.5v520h149v-550q0 -31 -2.5 -54t-15 -56t-34.5 -54t-66.5 -36.5t-105.5 -15.5q-107 0 -164.5 51t-57.5 155v560zM271 972l146 -121l-61 -62l-85 70l-88 -70l-55 70z" />
    <glyph glyph-name="Udieresis" unicode="&#xdc;" horiz-adv-x="544" 
d="M49 754h149v-488q0 -75 9 -99q16 -44 65 -44q21 0 35.5 7t22 15t11 26.5t4.5 29t1 33.5v520h149v-550q0 -31 -2.5 -54t-15 -56t-34.5 -54t-66.5 -36.5t-105.5 -15.5q-107 0 -164.5 51t-57.5 155v560zM243 883q0 -30 -22 -51.5t-53 -21.5q-30 0 -52 21.5t-22 51.5
q0 32 22 54t54 22q30 0 51.5 -22.5t21.5 -53.5zM451 883q0 -30 -22 -51.5t-53 -21.5q-30 0 -52 21.5t-22 51.5q0 32 22 54t54 22q30 0 51.5 -22.5t21.5 -53.5z" />
    <glyph glyph-name="Yacute" unicode="&#xdd;" horiz-adv-x="514" 
d="M4 754h164l78 -205l11 -37h2l17 56l67 186h167l-176 -393v-361h-149v361zM304 978l102 -46l-129 -138l-69 40z" />
    <glyph glyph-name="Thorn" unicode="&#xde;" horiz-adv-x="487" 
d="M202 0h-149v754h149v-140h8q254 6 254 -223q0 -104 -62 -163t-167 -59l-33 2v-171zM202 491v-199q113 -5 113 101q0 98 -85 98h-28z" />
    <glyph glyph-name="germandbls" unicode="&#xdf;" horiz-adv-x="478" 
d="M71 505v52q0 3 -0.5 25t0 31.5t2 32.5t4.5 35.5t9.5 33.5t16 33t23.5 27t32 23t42.5 13.5t54.5 5.5q96 0 138.5 -58t42.5 -148q0 -129 -77 -159q93 -50 93 -205q0 -39 -3 -70.5t-13.5 -67.5t-27.5 -60t-48 -40t-72 -16q-14 0 -44 6v127q56 -2 55 123v7q0 128 -55 130v127
q21 2 31 15.5t11.5 25.5t1.5 35v6q0 95 -40 95q-9 0 -16 -4t-11 -11.5t-6 -15t-3 -19t-1 -19t0.5 -18.5t0.5 -14v-589h-141v389h-52v116h52z" />
    <glyph glyph-name="agrave" unicode="&#xe0;" horiz-adv-x="433" 
d="M219 119q16 0 26.5 16.5t15 42t6 44t1.5 33.5q0 16 -1.5 33.5t-6 43.5t-15.5 42t-28 16q-16 0 -27.5 -16t-15.5 -41.5t-5.5 -43t-1.5 -34.5q0 -136 52 -136zM258 0v57h-2q-34 -67 -93 -67q-40 0 -69 28.5t-42.5 73.5t-19.5 85t-6 76q0 40 5 79t18 83.5t42 72t70 27.5
q67 0 95 -72h2v62h141v-505h-141zM195 754l96 -144l-69 -40l-129 138z" />
    <glyph glyph-name="aacute" unicode="&#xe1;" horiz-adv-x="433" 
d="M219 119q16 0 26.5 16.5t15 42t6 44t1.5 33.5q0 16 -1.5 33.5t-6 43.5t-15.5 42t-28 16q-16 0 -27.5 -16t-15.5 -41.5t-5.5 -43t-1.5 -34.5q0 -136 52 -136zM258 0v57h-2q-34 -67 -93 -67q-40 0 -69 28.5t-42.5 73.5t-19.5 85t-6 76q0 40 5 79t18 83.5t42 72t70 27.5
q67 0 95 -72h2v62h141v-505h-141zM254 754l102 -46l-129 -138l-69 40z" />
    <glyph glyph-name="acircumflex" unicode="&#xe2;" horiz-adv-x="433" 
d="M219 119q16 0 26.5 16.5t15 42t6 44t1.5 33.5q0 16 -1.5 33.5t-6 43.5t-15.5 42t-28 16q-16 0 -27.5 -16t-15.5 -41.5t-5.5 -43t-1.5 -34.5q0 -136 52 -136zM258 0v57h-2q-34 -67 -93 -67q-40 0 -69 28.5t-42.5 73.5t-19.5 85t-6 76q0 40 5 79t18 83.5t42 72t70 27.5
q67 0 95 -72h2v62h141v-505h-141zM226 748l146 -121l-61 -62l-85 70l-88 -70l-55 70z" />
    <glyph glyph-name="atilde" unicode="&#xe3;" horiz-adv-x="433" 
d="M219 119q16 0 26.5 16.5t15 42t6 44t1.5 33.5q0 16 -1.5 33.5t-6 43.5t-15.5 42t-28 16q-16 0 -27.5 -16t-15.5 -41.5t-5.5 -43t-1.5 -34.5q0 -136 52 -136zM258 0v57h-2q-34 -67 -93 -67q-40 0 -69 28.5t-42.5 73.5t-19.5 85t-6 76q0 40 5 79t18 83.5t42 72t70 27.5
q67 0 95 -72h2v62h141v-505h-141zM313 740l75 -5q-5 -29 -10 -47t-15.5 -40.5t-29 -34t-45.5 -11.5q-28 0 -78 22q-30 13 -42 13q-27 0 -32 -32h-73q3 28 7 47t13.5 41t28 33.5t45.5 11.5q29 0 66 -19t54 -19q32 0 36 40z" />
    <glyph glyph-name="adieresis" unicode="&#xe4;" horiz-adv-x="433" 
d="M219 119q16 0 26.5 16.5t15 42t6 44t1.5 33.5q0 16 -1.5 33.5t-6 43.5t-15.5 42t-28 16q-16 0 -27.5 -16t-15.5 -41.5t-5.5 -43t-1.5 -34.5q0 -136 52 -136zM258 0v57h-2q-34 -67 -93 -67q-40 0 -69 28.5t-42.5 73.5t-19.5 85t-6 76q0 40 5 79t18 83.5t42 72t70 27.5
q67 0 95 -72h2v62h141v-505h-141zM196 659q0 -30 -22 -51.5t-53 -21.5q-30 0 -52 21.5t-22 51.5q0 32 22 54t54 22q30 0 51.5 -22.5t21.5 -53.5zM404 659q0 -30 -22 -51.5t-53 -21.5q-30 0 -52 21.5t-22 51.5q0 32 22 54t54 22q30 0 51.5 -22.5t21.5 -53.5z" />
    <glyph glyph-name="aring" unicode="&#xe5;" horiz-adv-x="433" 
d="M219 119q16 0 26.5 16.5t15 42t6 44t1.5 33.5q0 16 -1.5 33.5t-6 43.5t-15.5 42t-28 16q-16 0 -27.5 -16t-15.5 -41.5t-5.5 -43t-1.5 -34.5q0 -136 52 -136zM258 0v57h-2q-34 -67 -93 -67q-40 0 -69 28.5t-42.5 73.5t-19.5 85t-6 76q0 40 5 79t18 83.5t42 72t70 27.5
q67 0 95 -72h2v62h141v-505h-141zM226 549q-45 0 -77 31.5t-32 77.5t32 77t78 31q44 0 75 -32.5t31 -77.5q0 -44 -31.5 -75.5t-75.5 -31.5zM226 615q16 0 28.5 12.5t12.5 28.5q0 18 -12 31t-29 13q-18 0 -30.5 -12t-12.5 -31q0 -18 12.5 -30t30.5 -12z" />
    <glyph glyph-name="ae" unicode="&#xe6;" horiz-adv-x="640" 
d="M389 302h103v12q0 93 -51 93q-20 0 -32.5 -16.5t-16 -35t-3.5 -38.5v-15zM611 215h-223q2 -74 17 -97q13 -20 36 -20q45 0 45 58h120q-10 -76 -46 -118q-40 -48 -114 -48q-82 0 -126 62q-57 -62 -129 -62q-75 0 -120 43.5t-45 117.5q0 66 42.5 109t108.5 43q51 0 75 -18
q1 57 -14.5 85.5t-68.5 28.5q-44 0 -99 -26v121q60 21 115 21q103 0 139 -74q38 74 119 74q75 0 126 -64.5t45 -177.5zM207 94q23 0 38.5 16t15.5 38t-16 37.5t-37 15.5t-37 -15t-16 -36q0 -23 14.5 -39.5t37.5 -16.5z" />
    <glyph glyph-name="ccedilla" unicode="&#xe7;" horiz-adv-x="315" 
d="M292 137v-129q-39 -18 -81 -18q-64 0 -108 42t-60.5 98t-16.5 119q0 50 10.5 95.5t32.5 85t61.5 62.5t91.5 23q36 0 70 -15v-124q-17 16 -41 16q-46 0 -65 -42t-19 -93q0 -135 82 -135q21 0 43 15zM162 -48l90 -36l-105 -134l-63 32z" />
    <glyph glyph-name="egrave" unicode="&#xe8;" horiz-adv-x="414" 
d="M266 302v12q0 93 -51 93q-20 0 -32.5 -16.5t-16 -35t-3.5 -38.5v-15h103zM388 273l-3 -58h-223q2 -74 17 -97q13 -20 36 -20q45 0 45 58h120q-10 -76 -46 -118q-40 -48 -114 -48q-99 0 -146.5 73t-47.5 179q0 49 9.5 94.5t30.5 87t60 66.5t91 25q75 0 126 -64.5
t45 -177.5zM185 754l96 -144l-69 -40l-129 138z" />
    <glyph glyph-name="eacute" unicode="&#xe9;" horiz-adv-x="414" 
d="M266 302v12q0 93 -51 93q-20 0 -32.5 -16.5t-16 -35t-3.5 -38.5v-15h103zM388 273l-3 -58h-223q2 -74 17 -97q13 -20 36 -20q45 0 45 58h120q-10 -76 -46 -118q-40 -48 -114 -48q-99 0 -146.5 73t-47.5 179q0 49 9.5 94.5t30.5 87t60 66.5t91 25q75 0 126 -64.5
t45 -177.5zM244 754l102 -46l-129 -138l-69 40z" />
    <glyph glyph-name="ecircumflex" unicode="&#xea;" horiz-adv-x="414" 
d="M266 302v12q0 93 -51 93q-20 0 -32.5 -16.5t-16 -35t-3.5 -38.5v-15h103zM388 273l-3 -58h-223q2 -74 17 -97q13 -20 36 -20q45 0 45 58h120q-10 -76 -46 -118q-40 -48 -114 -48q-99 0 -146.5 73t-47.5 179q0 49 9.5 94.5t30.5 87t60 66.5t91 25q75 0 126 -64.5
t45 -177.5zM214 748l146 -121l-61 -62l-85 70l-88 -70l-55 70z" />
    <glyph glyph-name="edieresis" unicode="&#xeb;" horiz-adv-x="414" 
d="M266 302v12q0 93 -51 93q-20 0 -32.5 -16.5t-16 -35t-3.5 -38.5v-15h103zM388 273l-3 -58h-223q2 -74 17 -97q13 -20 36 -20q45 0 45 58h120q-10 -76 -46 -118q-40 -48 -114 -48q-99 0 -146.5 73t-47.5 179q0 49 9.5 94.5t30.5 87t60 66.5t91 25q75 0 126 -64.5
t45 -177.5zM178 659q0 -30 -22 -51.5t-53 -21.5q-30 0 -52 21.5t-22 51.5q0 32 22 54t54 22q30 0 51.5 -22.5t21.5 -53.5zM386 659q0 -30 -22 -51.5t-53 -21.5q-30 0 -52 21.5t-22 51.5q0 32 22 54t54 22q30 0 51.5 -22.5t21.5 -53.5z" />
    <glyph glyph-name="igrave" unicode="&#xec;" horiz-adv-x="209" 
d="M34 505h141v-505h-141v505zM92 754l96 -144l-69 -40l-129 138z" />
    <glyph glyph-name="iacute" unicode="&#xed;" horiz-adv-x="209" 
d="M34 505h141v-505h-141v505zM116 754l102 -46l-129 -138l-69 40z" />
    <glyph glyph-name="icircumflex" unicode="&#xee;" horiz-adv-x="209" 
d="M34 505h141v-505h-141v505zM104 748l146 -121l-61 -62l-85 70l-88 -70l-55 70z" />
    <glyph glyph-name="idieresis" unicode="&#xef;" horiz-adv-x="209" 
d="M34 505h141v-505h-141v505zM76 659q0 -30 -22 -51.5t-53 -21.5q-30 0 -52 21.5t-22 51.5q0 32 22 54t54 22q30 0 51.5 -22.5t21.5 -53.5zM284 659q0 -30 -22 -51.5t-53 -21.5q-30 0 -52 21.5t-22 51.5q0 32 22 54t54 22q30 0 51.5 -22.5t21.5 -53.5z" />
    <glyph glyph-name="eth" unicode="&#xf0;" horiz-adv-x="436" 
d="M167 252q0 -136 51 -136t51 136t-51 136t-51 -136zM83 576l-34 62l82 43q-28 44 -63 86l104 53q29 -33 64 -83l86 45l39 -60l-86 -45q135 -218 135 -425q0 -38 -5.5 -73.5t-19 -71t-34.5 -61t-55 -41.5t-78 -16q-54 0 -93 22.5t-60 61.5t-30 83t-9 96q0 50 8.5 93t28 81
t57.5 60t90 22q13 0 26 -4q-50 90 -67 117z" />
    <glyph glyph-name="ntilde" unicode="&#xf1;" horiz-adv-x="424" 
d="M176 505v-78h2q15 38 46.5 63t70.5 25q23 0 40.5 -7t27.5 -23t16 -28.5t8.5 -38t2.5 -37v-39.5v-16v-326h-141v277q0 1 0.5 19t0 27t-3.5 23t-11 20.5t-21 6.5q-38 0 -38 -58v-315h-141v505h141zM300 740l75 -5q-5 -29 -10 -47t-15.5 -40.5t-29 -34t-45.5 -11.5
q-28 0 -78 22q-30 13 -42 13q-27 0 -32 -32h-73q3 28 7 47t13.5 41t28 33.5t45.5 11.5q28 0 66 -19t54 -19q32 0 36 40z" />
    <glyph glyph-name="ograve" unicode="&#xf2;" horiz-adv-x="436" 
d="M218 515q54 0 93 -22.5t60 -61.5t30 -83t9 -96t-9 -96t-30 -83t-60 -61t-93 -22t-93 22t-60 61t-30 83t-9 96t9 96t30 83t60 61.5t93 22.5zM218 388q-51 0 -51 -136t51 -136t51 136t-51 136zM196 754l96 -144l-69 -40l-129 138z" />
    <glyph glyph-name="oacute" unicode="&#xf3;" horiz-adv-x="436" 
d="M218 515q54 0 93 -22.5t60 -61.5t30 -83t9 -96t-9 -96t-30 -83t-60 -61t-93 -22t-93 22t-60 61t-30 83t-9 96t9 96t30 83t60 61.5t93 22.5zM218 388q-51 0 -51 -136t51 -136t51 136t-51 136zM255 754l102 -46l-129 -138l-69 40z" />
    <glyph glyph-name="ocircumflex" unicode="&#xf4;" horiz-adv-x="436" 
d="M218 515q54 0 93 -22.5t60 -61.5t30 -83t9 -96t-9 -96t-30 -83t-60 -61t-93 -22t-93 22t-60 61t-30 83t-9 96t9 96t30 83t60 61.5t93 22.5zM218 388q-51 0 -51 -136t51 -136t51 136t-51 136zM217 748l146 -121l-61 -62l-85 70l-88 -70l-55 70z" />
    <glyph glyph-name="otilde" unicode="&#xf5;" horiz-adv-x="436" 
d="M218 515q54 0 93 -22.5t60 -61.5t30 -83t9 -96t-9 -96t-30 -83t-60 -61t-93 -22t-93 22t-60 61t-30 83t-9 96t9 96t30 83t60 61.5t93 22.5zM218 388q-51 0 -51 -136t51 -136t51 136t-51 136zM306 740l75 -5q-5 -29 -10 -47t-15.5 -40.5t-29 -34t-45.5 -11.5q-28 0 -78 22
q-30 13 -42 13q-27 0 -32 -32h-73q3 28 7 47t13.5 41t28 33.5t45.5 11.5q28 0 66 -19t54 -19q32 0 36 40z" />
    <glyph glyph-name="odieresis" unicode="&#xf6;" horiz-adv-x="436" 
d="M218 515q54 0 93 -22.5t60 -61.5t30 -83t9 -96t-9 -96t-30 -83t-60 -61t-93 -22t-93 22t-60 61t-30 83t-9 96t9 96t30 83t60 61.5t93 22.5zM218 388q-51 0 -51 -136t51 -136t51 136t-51 136zM189 659q0 -30 -22 -51.5t-53 -21.5q-30 0 -52 21.5t-22 51.5q0 32 22 54
t54 22q30 0 51.5 -22.5t21.5 -53.5zM397 659q0 -30 -22 -51.5t-53 -21.5q-30 0 -52 21.5t-22 51.5q0 32 22 54t54 22q30 0 51.5 -22.5t21.5 -53.5z" />
    <glyph glyph-name="divide" unicode="&#xf7;" 
d="M21 201v110h449v-110h-449zM308 384h-127v115h127v-115zM308 13h-127v115h127v-115z" />
    <glyph glyph-name="oslash" unicode="&#xf8;" horiz-adv-x="436" 
d="M167 255q0 -138 53 -138q16 0 26.5 16.5t15 41.5t6 43t1.5 33q0 137 -53 137q-16 0 -27 -16t-15 -41.5t-5.5 -42.5t-1.5 -33zM324 482l27 44l51 -32l-36 -58q44 -79 44 -184q0 -49 -9.5 -93t-30 -83.5t-59 -62.5t-90.5 -23q-62 0 -111 36l-27 -44l-52 34l36 60
q-41 74 -41 181q0 47 9.5 90t30.5 82t60 62.5t91 23.5q67 0 107 -33z" />
    <glyph glyph-name="ugrave" unicode="&#xf9;" horiz-adv-x="423" 
d="M35 505h141v-277q0 -2 -1 -21t0 -29.5t4 -25.5t11.5 -22.5t21.5 -7.5q36 0 35 70v5l1 308h140v-322q0 -91 -44.5 -142t-135.5 -51q-46 0 -79.5 14t-51 33.5t-27.5 50.5t-12.5 56t-2.5 58v303zM175 754l96 -144l-69 -40l-129 138z" />
    <glyph glyph-name="uacute" unicode="&#xfa;" horiz-adv-x="423" 
d="M35 505h141v-277q0 -2 -1 -21t0 -29.5t4 -25.5t11.5 -22.5t21.5 -7.5q36 0 35 70v5l1 308h140v-322q0 -91 -44.5 -142t-135.5 -51q-46 0 -79.5 14t-51 33.5t-27.5 50.5t-12.5 56t-2.5 58v303zM249 754l102 -46l-129 -138l-69 40z" />
    <glyph glyph-name="ucircumflex" unicode="&#xfb;" horiz-adv-x="423" 
d="M35 505h141v-277q0 -2 -1 -21t0 -29.5t4 -25.5t11.5 -22.5t21.5 -7.5q36 0 35 70v5l1 308h140v-322q0 -91 -44.5 -142t-135.5 -51q-46 0 -79.5 14t-51 33.5t-27.5 50.5t-12.5 56t-2.5 58v303zM211 748l146 -121l-61 -62l-85 70l-88 -70l-55 70z" />
    <glyph glyph-name="udieresis" unicode="&#xfc;" horiz-adv-x="423" 
d="M35 505h141v-277q0 -2 -1 -21t0 -29.5t4 -25.5t11.5 -22.5t21.5 -7.5q36 0 35 70v5l1 308h140v-322q0 -91 -44.5 -142t-135.5 -51q-46 0 -79.5 14t-51 33.5t-27.5 50.5t-12.5 56t-2.5 58v303zM183 659q0 -30 -22 -51.5t-53 -21.5q-30 0 -52 21.5t-22 51.5q0 32 22 54
t54 22q30 0 51.5 -22.5t21.5 -53.5zM391 659q0 -30 -22 -51.5t-53 -21.5q-30 0 -52 21.5t-22 51.5q0 32 22 54t54 22q30 0 51.5 -22.5t21.5 -53.5z" />
    <glyph glyph-name="yacute" unicode="&#xfd;" horiz-adv-x="452" 
d="M15 505h142l53 -204l17 -84h2l66 288h142l-217 -754h-139l81 259zM273 754l102 -46l-129 -138l-69 40z" />
    <glyph glyph-name="thorn" unicode="&#xfe;" horiz-adv-x="433" 
d="M176 707v-264h2q28 72 94 72q42 0 71 -27.5t41.5 -72.5t17.5 -83.5t5 -78.5q0 -37 -5.5 -76.5t-19 -84.5t-42.5 -73.5t-69 -28.5q-61 0 -93 67h-2v-306h-141v956h141zM215 119q51 0 51 136q0 16 -1.5 34t-6 43.5t-15.5 41.5t-27 16q-50 0 -50 -135q0 -16 1.5 -33.5
t5.5 -43.5t15 -42.5t27 -16.5z" />
    <glyph glyph-name="ydieresis" unicode="&#xff;" horiz-adv-x="452" 
d="M15 505h142l53 -204l17 -84h2l66 288h142l-217 -754h-139l81 259zM197 659q0 -30 -22 -51.5t-53 -21.5q-30 0 -52 21.5t-22 51.5q0 32 22 54t54 22q30 0 51.5 -22.5t21.5 -53.5zM405 659q0 -30 -22 -51.5t-53 -21.5q-30 0 -52 21.5t-22 51.5q0 32 22 54t54 22
q30 0 51.5 -22.5t21.5 -53.5z" />
    <glyph glyph-name="dotlessi" unicode="&#x131;" horiz-adv-x="209" 
d="M34 505h141v-505h-141v505z" />
    <glyph glyph-name="Lslash" unicode="&#x141;" horiz-adv-x="373" 
d="M53 754h149v-250l80 56v-110l-80 -58v-252h156v-140h-305v288l-53 -40v120l53 40v346z" />
    <glyph glyph-name="lslash" unicode="&#x142;" horiz-adv-x="210" 
d="M35 0v336l-65 -51v99l65 51v372h141v-273l64 52v-97l-64 -53v-436h-141z" />
    <glyph glyph-name="OE" unicode="&#x152;" horiz-adv-x="745" 
d="M397 0v57h-2q-47 -69 -131 -69q-69 0 -118.5 37t-74 98.5t-35 122t-10.5 125.5q0 53 6 102.5t22.5 104.5t43 95t71.5 66.5t104 26.5q80 0 122 -54h2v42h309v-140h-161v-158h144v-140h-144v-176h162v-140h-310zM396 378q0 254 -103 254q-29 0 -50 -20.5t-32 -48.5
t-17 -66.5t-7.5 -64.5t-1.5 -54q0 -36 3 -70.5t13 -81t33.5 -75.5t58.5 -29q103 0 103 256z" />
    <glyph glyph-name="oe" unicode="&#x153;" horiz-adv-x="653" 
d="M402 302h103v12q0 93 -51 93q-20 0 -32.5 -16.5t-16 -35t-3.5 -38.5v-15zM459 -10q-86 0 -139 55q-40 -55 -113 -55q-63 0 -105.5 40.5t-59 97.5t-16.5 124q0 68 16.5 124.5t59 97.5t105.5 41q79 0 123 -50q28 27 55.5 38.5t70.5 11.5q75 0 126 -64.5t45 -177.5l-3 -58
h-223q2 -74 17 -97q13 -20 36 -20q45 0 45 58h120q-10 -76 -46 -118q-40 -48 -114 -48zM267 255q0 136 -49 136q-51 0 -51 -139q0 -138 51 -138q16 0 27 17t15 44t5.5 45.5t1.5 34.5z" />
    <glyph glyph-name="Scaron" unicode="&#x160;" horiz-adv-x="440" 
d="M363 729v-145q-55 48 -108 48q-35 0 -55 -20t-20 -54t23.5 -62t57 -51.5t66.5 -50.5t56.5 -70.5t23.5 -100.5q0 -104 -57.5 -169.5t-159.5 -65.5q-76 0 -128 38v142q58 -40 113 -40q37 0 61.5 22.5t24.5 59.5q0 14 -4 26.5t-9 21t-16 18.5t-17 14.5t-21.5 15t-20.5 14.5
q-71 48 -105 97.5t-34 126.5q0 94 52.5 158t144.5 64q69 0 132 -37zM222 789l-146 121l61 62l85 -70l88 70l55 -70z" />
    <glyph glyph-name="scaron" unicode="&#x161;" horiz-adv-x="376" 
d="M346 472l-57 -103q-37 33 -68 33q-38 0 -38 -37q1 -16 17.5 -28.5t40 -24t47 -27t40 -46t16.5 -72.5q0 -78 -43 -127.5t-119 -49.5q-82 0 -152 58l62 100q38 -33 70 -33q17 0 29 11.5t12 30.5q1 18 -15.5 31.5t-40.5 25.5t-47.5 28.5t-40.5 48.5t-17 76q0 69 49 108.5
t120 39.5q76 0 135 -43zM198 565l-146 121l61 62l85 -70l88 70l55 -70z" />
    <glyph glyph-name="Ydieresis" unicode="&#x178;" horiz-adv-x="514" 
d="M4 754h164l78 -205l11 -37h2l17 56l67 186h167l-176 -393v-361h-149v361zM234 883q0 -30 -22 -51.5t-53 -21.5q-30 0 -52 21.5t-22 51.5q0 32 22 54t54 22q30 0 51.5 -22.5t21.5 -53.5zM442 883q0 -30 -22 -51.5t-53 -21.5q-30 0 -52 21.5t-22 51.5q0 32 22 54t54 22
q30 0 51.5 -22.5t21.5 -53.5z" />
    <glyph glyph-name="Zcaron" unicode="&#x17d;" horiz-adv-x="508" 
d="M50 754h443l-258 -614h237v-140h-454l251 614h-219v140zM256 789l-146 121l61 62l85 -70l88 70l55 -70z" />
    <glyph glyph-name="zcaron" unicode="&#x17e;" horiz-adv-x="401" 
d="M39 505h339l-156 -388h139v-117h-338l160 388h-144v117zM203 565l-146 121l61 62l85 -70l88 70l55 -70z" />
    <glyph glyph-name="florin" unicode="&#x192;" 
d="M492 747l-22 -103q-22 12 -42 12q-17 0 -30 -6.5t-20.5 -13.5t-13 -23t-7 -25.5t-4.5 -30t-4 -27.5l-5 -31h111v-95h-124l-48 -295q-27 -159 -61 -224q-17 -33 -52 -51.5t-74 -18.5q-37 0 -87 12l17 110q18 -16 45.5 -15t38.5 24q13 24 23 80l65 378h-111v95h126l16 78
q36 186 178 186q28 0 78 -14q1 -1 3.5 -1t3.5 -1z" />
    <glyph glyph-name="circumflex" unicode="&#x2c6;" horiz-adv-x="300" 
d="M149 748l146 -121l-61 -62l-85 70l-88 -70l-55 70z" />
    <glyph glyph-name="caron" unicode="&#x2c7;" horiz-adv-x="300" 
d="M152 565l-146 121l61 62l85 -70l88 70l55 -70z" />
    <glyph glyph-name="uni02C9" unicode="&#x2c9;" horiz-adv-x="300" 
d="M323 666h-346v74h346v-74z" />
    <glyph glyph-name="breve" unicode="&#x2d8;" horiz-adv-x="300" 
d="M253 780h65q-9 -70 -53 -107.5t-115 -37.5q-79 0 -124.5 40.5t-43.5 104.5h65q4 -35 30.5 -52.5t67.5 -17.5q53 0 78 16.5t30 53.5z" />
    <glyph glyph-name="dotaccent" unicode="&#x2d9;" horiz-adv-x="300" 
d="M225 659q0 -30 -22 -51.5t-53 -21.5q-30 0 -52 21.5t-22 51.5q0 32 22 54t54 22q30 0 51.5 -22.5t21.5 -53.5z" />
    <glyph glyph-name="ring" unicode="&#x2da;" horiz-adv-x="300" 
d="M151 549q-45 0 -77 31.5t-32 77.5t32 77t78 31q44 0 75 -32.5t31 -77.5q0 -44 -31.5 -75.5t-75.5 -31.5zM151 615q17 0 29 12.5t12 28.5q0 18 -12 31t-29 13q-18 0 -30.5 -12t-12.5 -31q0 -18 12.5 -30t30.5 -12z" />
    <glyph glyph-name="ogonek" unicode="&#x2db;" horiz-adv-x="300" 
d="M243 -104v-86q-30 -15 -74 -15q-49 0 -82.5 25.5t-33.5 73.5q0 22 15 44t29 33.5t39 28.5h68v-2q-25 -13 -44 -35t-19 -41t13.5 -31.5t32.5 -12.5q8 0 17.5 3t21.5 8t17 7z" />
    <glyph glyph-name="tilde" unicode="&#x2dc;" horiz-adv-x="300" 
d="M238 740l75 -5q-5 -29 -10 -47t-15.5 -40.5t-29 -34t-45.5 -11.5q-28 0 -78 22q-30 13 -42 13q-27 0 -32 -32h-73q3 28 7 47t13.5 41t28 33.5t45.5 11.5q28 0 66 -19t54 -19q32 0 36 40z" />
    <glyph glyph-name="hungarumlaut" unicode="&#x2dd;" horiz-adv-x="300" 
d="M54 754l102 -46l-129 -138l-69 40zM240 754l102 -46l-129 -138l-69 40z" />
    <glyph glyph-name="uni03A9" unicode="&#x3a9;" horiz-adv-x="604" 
d="M140 116v3q-99 128 -99 301q0 142 73.5 241.5t190.5 99.5q63 0 114 -31t80.5 -80.5t45 -106t15.5 -112.5q0 -92 -29.5 -175t-70.5 -137v-3h114v-116h-234v83q35 31 60 111.5t25 202.5q0 105 -31 174t-91 69t-94 -69t-34 -180q0 -113 25 -195.5t60 -112.5v-83h-233v116
h113z" />
    <glyph glyph-name="uni03BC" unicode="&#x3bc;" horiz-adv-x="423" 
d="M248 505h141v-326v-16q0 -25 -0.5 -39t-2.5 -38t-8 -38t-16 -29t-27.5 -22t-40.5 -7q-40 0 -71 25t-46 63h-2v-327h-141v754h141v-315q0 -58 38 -58q13 0 21 6.5t11 20.5t3.5 23t0 27t-0.5 19v277z" />
    <glyph glyph-name="pi" unicode="&#x3c0;" horiz-adv-x="550" 
d="M529 442h-59v-296q0 -88 12 -146h-128q-16 38 -16 145v297h-108q-14 -276 -57 -442h-128q23 97 38 226t17 216q-52 0 -81 -8l-14 96q43 36 154 36h379z" />
    <glyph glyph-name="endash" unicode="&#x2013;" horiz-adv-x="500" 
d="M0 397h500v-133h-500v133z" />
    <glyph glyph-name="emdash" unicode="&#x2014;" horiz-adv-x="1000" 
d="M130 397h740v-133h-740v133z" />
    <glyph glyph-name="quoteleft" unicode="&#x2018;" horiz-adv-x="302" 
d="M176 448h-150l150 306h100z" />
    <glyph glyph-name="quoteright" unicode="&#x2019;" horiz-adv-x="302" 
d="M126 754h150l-150 -306h-100z" />
    <glyph glyph-name="quotesinglbase" unicode="&#x201a;" horiz-adv-x="303" 
d="M126 162h151l-151 -306h-100z" />
    <glyph glyph-name="quotedblleft" unicode="&#x201c;" horiz-adv-x="491" 
d="M365 448h-150l150 306h100zM176 448h-150l150 306h100z" />
    <glyph glyph-name="quotedblright" unicode="&#x201d;" horiz-adv-x="491" 
d="M126 754h150l-150 -306h-100zM315 754h150l-150 -306h-100z" />
    <glyph glyph-name="quotedblbase" unicode="&#x201e;" horiz-adv-x="491" 
d="M126 162h150l-150 -306h-100zM315 162h150l-150 -306h-100z" />
    <glyph glyph-name="dagger" unicode="&#x2020;" horiz-adv-x="491" 
d="M177 754h137v-241h128v-128h-128v-549h-137v549h-127v128h127v241z" />
    <glyph glyph-name="daggerdbl" unicode="&#x2021;" 
d="M176 754h137v-216h127v-128h-127v-172h127v-128h-127v-274h-137v274h-126v128h126v172h-126v128h126v216z" />
    <glyph glyph-name="bullet" unicode="&#x2022;" horiz-adv-x="420" 
d="M209 559q78 0 133.5 -55t55.5 -132q0 -79 -55.5 -134.5t-133.5 -55.5q-79 0 -133.5 55.5t-54.5 134.5q0 78 54.5 132.5t133.5 54.5z" />
    <glyph glyph-name="ellipsis" unicode="&#x2026;" horiz-adv-x="1000" 
d="M167 -12q-40 0 -67.5 28t-27.5 67t27.5 67t67.5 28t67.5 -28t27.5 -67t-27.5 -67t-67.5 -28zM500 -12q-40 0 -67.5 28t-27.5 67t27.5 67t67.5 28t67.5 -28t27.5 -67t-27.5 -67t-67.5 -28zM833 -12q-40 0 -67.5 28t-27.5 67t27.5 67t67.5 28t67.5 -28t27.5 -67t-27.5 -67
t-67.5 -28z" />
    <glyph glyph-name="perthousand" unicode="&#x2030;" horiz-adv-x="1234" 
d="M195 761q45 0 77 -18.5t48.5 -51.5t24 -69t7.5 -78t-7.5 -78t-24 -69t-48.5 -51.5t-77 -18.5t-77 18.5t-48.5 51.5t-24 69t-7.5 78t7.5 78t24 69t48.5 51.5t77 18.5zM195 647q-37 0 -37 -103t37 -103t37 103t-37 103zM662 -7q-45 0 -77 18.5t-48.5 51.5t-24 69t-7.5 78
t7.5 78t24 69t48.5 51.5t77 18.5t77 -18.5t48.5 -51.5t24 -69t7.5 -78t-7.5 -78t-24 -69t-48.5 -51.5t-77 -18.5zM662 107q37 0 37 103t-37 103t-37 -103t37 -103zM1038 -7q-45 0 -77 18.5t-48.5 51.5t-24 69t-7.5 78t7.5 78t24 69t48.5 51.5t77 18.5t77 -18.5t48.5 -51.5
t24 -69t7.5 -78t-7.5 -78t-24 -69t-48.5 -51.5t-77 -18.5zM1038 107q37 0 37 103t-37 103t-37 -103t37 -103zM304 0h-107l357 754h107z" />
    <glyph glyph-name="guilsinglleft" unicode="&#x2039;" horiz-adv-x="260" 
d="M26 332l130 232l77 -43l-103 -189l103 -195l-77 -39z" />
    <glyph glyph-name="guilsinglright" unicode="&#x203a;" horiz-adv-x="260" 
d="M104 564l130 -232l-130 -234l-77 39l103 195l-103 189z" />
    <glyph glyph-name="fraction" unicode="&#x2044;" horiz-adv-x="166" 
d="M220 754h86l-359 -754h-87z" />
    <glyph glyph-name="Euro" unicode="&#x20ac;" 
d="M451 735v-128q-34 34 -104 34q-52 0 -80 -31.5t-35 -100.5h192l-30 -100h-172v-29v-34h153l-30 -100h-113q14 -134 115 -134q70 0 104 32v-129q-34 -26 -130 -26q-196 0 -229 257h-75l29 100h36q-1 9 -1 33q0 20 1 30h-65l29 100h44q33 256 231 256q88 0 130 -30z" />
    <glyph glyph-name="afii61289" unicode="&#x2113;" horiz-adv-x="464" 
d="M402 190l50 -56q-63 -143 -186 -143q-86 0 -127 50t-44 127q0 8 -1 13q-25 -23 -47 -41l-30 73q61 57 77 75v276q0 127 49 194.5t122 67.5q63 0 94.5 -51.5t31.5 -138.5q0 -165 -168 -359v-63q1 -55 20.5 -84t52.5 -29q53 0 106 89zM223 545v-137q43 60 68 124t25 114
q0 40 -9.5 59t-33.5 19q-50 0 -50 -179z" />
    <glyph glyph-name="trademark" unicode="&#x2122;" horiz-adv-x="800" 
d="M774 754v-404h-80v326h-2l-105 -326h-47l-105 326h-2v-326h-80v404h129l81 -239h2l80 239h129zM310 754v-78h-115v-326h-80v326h-114v78h309z" />
    <glyph glyph-name="Omega" unicode="&#x2126;" horiz-adv-x="604" 
d="M140 116v3q-99 128 -99 301q0 142 73.5 241.5t190.5 99.5q63 0 114 -31t80.5 -80.5t45 -106t15.5 -112.5q0 -92 -29.5 -175t-70.5 -137v-3h114v-116h-234v83q35 31 60 111.5t25 202.5q0 105 -31 174t-91 69t-94 -69t-34 -180q0 -113 25 -195.5t60 -112.5v-83h-233v116
h113z" />
    <glyph glyph-name="estimated" unicode="&#x212e;" horiz-adv-x="938" 
d="M901 366h-700q-6 0 -6 -4v-212q0 -11 9 -24q110 -115 265 -115q167 0 279 128h62q-59 -69 -149 -109.5t-193 -40.5q-179 0 -305.5 113.5t-126.5 274.5t126.5 275t305.5 114t306 -114t127 -275v-11zM742 394v213q0 14 -11 25q-110 110 -262 110q-153 0 -263 -113
q-11 -11 -11 -27v-208q0 -7 6 -7h536q5 0 5 7z" />
    <glyph glyph-name="partialdiff" unicode="&#x2202;" horiz-adv-x="531" 
d="M99 682l-35 111q71 59 167 59q106 0 179 -103.5t73 -301.5q0 -216 -67 -334.5t-190 -118.5q-88 0 -138.5 76t-50.5 176q0 131 57.5 208.5t140.5 77.5q42 0 72.5 -21t43.5 -44h1q1 7 1 32q0 91 -39 162.5t-102 71.5q-62 0 -113 -51zM239 115h1q42 0 69 71t34 160
q-7 26 -29 48.5t-54 22.5q-41 0 -66.5 -54.5t-25.5 -125.5q0 -53 19 -87.5t52 -34.5z" />
    <glyph glyph-name="Delta" unicode="&#x2206;" horiz-adv-x="588" 
d="M25 0v83l195 681h157l184 -678v-86h-536zM159 114h266l-81 277q-7 32 -26 103.5t-23 94.5h-2q-4 -22 -21.5 -87t-24.5 -96z" />
    <glyph glyph-name="product" unicode="&#x220f;" horiz-adv-x="663" 
d="M636 620h-85v-724h-134v724h-172v-724h-134v724h-85v131h610v-131z" />
    <glyph glyph-name="summation" unicode="&#x2211;" horiz-adv-x="502" 
d="M484 -104h-460v95l210 336l-205 323v101h441v-118h-268v-4l180 -274l-205 -321v-4h307v-134z" />
    <glyph glyph-name="minus" unicode="&#x2212;" 
d="M21 201v110h449v-110h-449z" />
    <glyph glyph-name="uni2215" unicode="&#x2215;" horiz-adv-x="166" 
d="M220 754h86l-359 -754h-87z" />
    <glyph glyph-name="uni2219" unicode="&#x2219;" horiz-adv-x="245" 
d="M122 351q40 0 67.5 -28t27.5 -67t-27.5 -67t-67.5 -28t-67.5 28t-27.5 67t27.5 67t67.5 28z" />
    <glyph glyph-name="radical" unicode="&#x221a;" horiz-adv-x="551" 
d="M554 907l-201 -1049h-105l-127 462l-69 -28l-20 81l170 69l79 -306q3 -19 10 -56t9 -49l1 -1q12 100 15 114l148 763h90z" />
    <glyph glyph-name="infinity" unicode="&#x221e;" horiz-adv-x="761" 
d="M715 310v-1q0 -80 -48 -128t-112 -48q-46 0 -86.5 23.5t-85.5 86.5q-43 -54 -84.5 -82t-96.5 -28q-63 0 -109.5 48t-46.5 123q0 76 47 124.5t118 48.5q94 0 173 -106q2 3 7 8q26 30 43 46.5t52 34t74 17.5q66 0 110.5 -46.5t44.5 -120.5zM212 208h1q25 0 49.5 14.5
t39.5 30.5t40 47q-46 62 -66 78q-30 25 -67 25q-41 0 -64 -27.5t-23 -72.5q0 -40 26 -67.5t64 -27.5zM553 403h-1q-12 0 -23.5 -3t-23 -10.5t-19.5 -12.5t-19 -17.5t-15.5 -17.5t-16 -19t-13.5 -16q44 -58 71.5 -78.5t63.5 -20.5q37 0 59.5 30t22.5 65q0 44 -23.5 72
t-62.5 28z" />
    <glyph glyph-name="integral" unicode="&#x222b;" horiz-adv-x="402" 
d="M368 920l-13 -100q-18 8 -31 8q-27 0 -44 -27q-24 -34 -24 -179q0 -86 6.5 -248.5t6.5 -264.5q0 -151 -32 -216q-36 -81 -133 -81q-43 0 -73 16l16 104q23 -10 38 -10q25 0 38 20q21 36 21 163q0 103 -6.5 270t-6.5 259q0 96 13 152t44 93q42 51 121 51q35 0 59 -10z" />
    <glyph glyph-name="approxequal" unicode="&#x2248;" horiz-adv-x="501" 
d="M419 476l46 -40q-20 -48 -53.5 -78.5t-72.5 -30.5q-45 0 -100 39q-49 34 -78 34q-14 0 -25.5 -5t-22.5 -19t-15 -20t-16 -27l-48 40q20 47 55.5 77t78.5 30q13 0 25.5 -2t23.5 -7t17.5 -8t17.5 -10t13 -8q3 -2 10 -6.5t10 -6.5t8.5 -5.5t8.5 -5l8 -4t8 -3.5t7 -2.5t8 -2
t8 -0.5q24 0 40.5 17t37.5 54zM419 288l46 -40q-20 -48 -53 -78t-73 -30q-44 0 -100 38q-20 14 -28.5 19.5t-22 10.5t-27.5 5t-25.5 -5t-22.5 -19t-15 -21t-16 -27l-48 40q20 47 55.5 77t78.5 30q10 0 19 -1t17.5 -3.5t14.5 -5t14 -6.5t11.5 -6t11.5 -7t9 -6
q6 -3 20.5 -12.5t20.5 -13t16 -7t19 -3.5q24 0 40.5 17t37.5 54z" />
    <glyph glyph-name="notequal" unicode="&#x2260;" horiz-adv-x="501" 
d="M374 533l-35 -83h117v-80h-143l-53 -132h196v-79h-223l-44 -106l-60 21l34 85h-119v79h146l53 132h-199v80h226l43 105z" />
    <glyph glyph-name="lessequal" unicode="&#x2264;" horiz-adv-x="501" 
d="M453 105l-403 225v87l403 224v-95l-330 -171v-2l330 -173v-95zM458 -13h-412v81h412v-81z" />
    <glyph glyph-name="greaterequal" unicode="&#x2265;" horiz-adv-x="501" 
d="M53 641l403 -225v-86l-403 -225v95l330 173v2l-330 171v95zM458 -13h-411v81h411v-81z" />
    <glyph glyph-name="lozenge" unicode="&#x25ca;" horiz-adv-x="550" 
d="M504 375l-178 -425h-110l-169 425l178 425h110zM385 372l-87 232q-13 39 -18 77h-4q-11 -51 -19 -77l-90 -226l88 -238q8 -29 16 -72h5q4 27 16 69z" />
    </font>
</defs>
</svg>
